<svg width="10" height="9" viewBox="0 0 10 9" fill="none" xmlns="http://www.w3.org/2000/svg">
<path d="M8.00378 0.445204L3.80248 6.06595L1.9908 3.694C1.80952 3.45846 1.54314 3.30542 1.25029 3.26852C0.957432 3.23163 0.66208 3.31391 0.429207 3.49727C0.196333 3.68063 0.0450134 3.95004 0.00853663 4.24624C-0.0279401 4.54244 0.0534138 4.84117 0.234701 5.0767L2.93554 8.57281C3.04021 8.70678 3.17368 8.81488 3.32582 8.8889C3.47796 8.96291 3.64477 9.0009 3.81359 8.99998C3.98333 8.99957 4.15072 8.95984 4.30293 8.88385C4.45513 8.80785 4.5881 8.6976 4.69164 8.56156L9.771 1.81667C9.95081 1.57815 10.0296 1.27716 9.98998 0.979906C9.95038 0.682651 9.79565 0.413482 9.55982 0.231615C9.324 0.0497478 9.02641 -0.0299211 8.73251 0.0101345C8.43861 0.0501901 8.17248 0.20669 7.99267 0.445204H8.00378Z" fill="#FF914D"/>
</svg>
