<svg width="96" height="96" viewBox="0 0 96 96" fill="none" xmlns="http://www.w3.org/2000/svg">
<path d="M92.5 47.773C92.5074 53.6156 91.3618 59.4022 89.1288 64.8012C86.8957 70.2002 83.6191 75.1054 79.4868 79.2357C75.3525 83.371 70.4437 86.6509 65.041 88.8879C59.6384 91.1249 53.8478 92.2752 48.0003 92.273C41.7069 92.2869 35.4828 90.9584 29.7435 88.3762L11.1402 91.128C10.2165 91.2788 9.27001 91.2018 8.38285 90.9038C7.49568 90.6057 6.6947 90.0955 6.04948 89.4176C5.40425 88.7397 4.9343 87.9144 4.68043 87.0136C4.42657 86.1128 4.39647 85.1636 4.59275 84.2485L7.17613 65.3758C4.71876 59.8345 3.46599 53.8346 3.5007 47.773C3.49323 41.9305 4.63885 36.1438 6.8719 30.7449C9.10495 25.3459 12.3815 20.4407 16.5138 16.3104C20.6482 12.1751 25.557 8.89517 30.9596 6.65815C36.3623 4.42112 42.1529 3.27085 48.0003 3.27307C59.8089 3.27386 71.1341 7.96315 79.4868 16.3104C83.617 20.4422 86.8922 25.3478 89.1251 30.7464C91.358 36.145 92.5048 41.9308 92.5 47.773Z" stroke="url(#paint0_linear_233_107)" stroke-width="6" stroke-linecap="round" stroke-linejoin="round"/>
<defs>
<linearGradient id="paint0_linear_233_107" x1="48" y1="3.27307" x2="48" y2="92.2731" gradientUnits="userSpaceOnUse">
<stop stop-color="#FF914D"/>
<stop offset="1" stop-color="#99572E"/>
</linearGradient>
</defs>
</svg>
