<svg width="77" height="75" viewBox="0 0 77 75" fill="none" xmlns="http://www.w3.org/2000/svg">
<path fill-rule="evenodd" clip-rule="evenodd" d="M0.878793 74.0001C0.293006 73.4143 0.293006 72.4646 0.878793 71.8788L71.5895 1.16813C72.1753 0.582345 73.125 0.582347 73.7108 1.16813C74.2966 1.75392 74.2966 2.70367 73.7108 3.28945L3.00011 74.0001C2.41433 74.5859 1.46458 74.5859 0.878793 74.0001Z" fill="#FF914D"/>
<path fill-rule="evenodd" clip-rule="evenodd" d="M2.9999 1.1681C3.58569 0.582313 4.53544 0.582313 5.12122 1.1681L75.8319 71.8788C76.4177 72.4646 76.4177 73.4143 75.8319 74.0001C75.2461 74.5859 74.2964 74.5859 73.7106 74.0001L2.9999 3.28942C2.41412 2.70363 2.41412 1.75389 2.9999 1.1681Z" fill="#FF914D"/>
</svg>
