<svg width="124" height="101" viewBox="0 0 124 101" fill="none" xmlns="http://www.w3.org/2000/svg">
<path d="M79.4 85.375C79.4 91.7953 84.5935 97 91 97C97.4065 97 102.6 91.7953 102.6 85.375C102.6 78.9547 97.4065 73.75 91 73.75C84.5935 73.75 79.4 78.9547 79.4 85.375ZM79.4 85.375H44.6M44.6 85.375C44.6 91.7953 39.4065 97 33 97C26.5935 97 21.4 91.7953 21.4 85.375C21.4 78.9547 26.5935 73.75 33 73.75C39.4065 73.75 44.6 78.9547 44.6 85.375ZM21.4 85.2123C15.0374 84.8984 11.076 83.951 8.2456 81.1203C5.4152 78.2896 4.4756 74.3139 4.1624 67.9375M102.6 85.2123C108.963 84.8984 112.924 83.951 115.754 81.1203C120 76.8597 120 70.0126 120 56.3125V44.6875M120 44.6875H92.74C88.419 44.6875 86.2614 44.6875 84.5156 44.1179C82.7747 43.551 81.1925 42.5792 79.8981 41.2821C78.6038 39.985 77.6341 38.3993 77.0684 36.6546C76.5 34.9051 76.5 32.7428 76.5 28.4125C76.5 21.9199 76.5 18.6766 75.6474 16.0493C74.7988 13.4324 73.3444 11.0538 71.4028 9.10814C69.4613 7.16244 67.0879 5.70482 64.4766 4.85444C61.855 4 58.6186 4 52.14 4H4M120 44.6875L112.599 30.9119C108.597 23.4603 106.596 19.7345 103.157 17.6827C99.7232 15.625 95.5066 15.625 87.0618 15.625H76.5M4 27.25H38.8M4 44.6875H27.2" stroke="url(#paint0_linear_314_134)" stroke-width="8" stroke-linecap="round" stroke-linejoin="round"/>
<defs>
<linearGradient id="paint0_linear_314_134" x1="62" y1="4" x2="62" y2="97" gradientUnits="userSpaceOnUse">
<stop stop-color="#FF914D"/>
<stop offset="1" stop-color="#99572E"/>
</linearGradient>
</defs>
</svg>
