<svg width="92" height="93" viewBox="0 0 92 93" fill="none" xmlns="http://www.w3.org/2000/svg">
<path d="M91.0357 69.8398C90.7054 69.0008 90.2285 68.2353 89.6047 67.5729L68.7485 46.2657L86.5959 28.2337C88.0783 26.7396 89.2377 24.9953 90.045 23.0375C90.8449 21.0872 91.2558 19.0263 91.2558 16.9067C91.2558 14.7943 90.8449 12.7335 90.045 10.7832C89.2377 8.82539 88.0783 7.08107 86.5959 5.59434C83.6091 2.57675 79.6389 0.920755 75.4119 0.920755C71.1923 0.920755 67.2221 2.57675 64.2353 5.59434L57.7994 12.0196L46.0577 23.884L24.864 2.22349C23.5944 0.979647 21.8845 0.273071 20.0792 0.273071C18.2739 0.273071 16.5641 0.979648 15.2725 2.25291L2.51076 15.1476C1.87231 15.7953 1.37329 16.546 1.02105 17.3924C0.676118 18.2388 0.5 19.1294 0.5 20.0494C0.5 20.962 0.676118 21.8526 1.02105 22.699C1.37329 23.5454 1.87231 24.3035 2.51076 24.9438L23.9173 46.2583L20.7764 49.4305L14.612 55.5908L2.14383 81.947C1.51272 83.2571 1.30722 84.6996 1.54941 86.1275C1.78425 87.5553 2.44473 88.8433 3.45746 89.8663C4.46283 90.8894 5.73974 91.5518 7.14138 91.7873C8.55037 92.0302 9.96675 91.8241 11.2436 91.1985L37.046 78.5908L43.0636 72.5115L45.9109 69.0228L66.9799 90.3153C68.2568 91.5665 69.9667 92.2731 71.772 92.2731C73.5773 92.2731 75.2871 91.5665 76.5787 90.2932L89.3405 77.3985C90.0303 76.7361 90.544 75.9928 90.9109 75.1537C91.2779 74.3147 91.476 73.4241 91.498 72.5115C91.5201 71.5915 91.3586 70.7009 91.0357 69.8398ZM67.3696 9.59178C68.4855 8.15586 71.2046 5.74559 75.2945 5.4766H75.3752C78.3767 5.48396 81.202 6.61739 83.3449 8.7297C84.4163 9.81165 85.2382 11.0481 85.8033 12.4318C86.3684 13.8081 86.6546 15.2654 86.6546 16.7668C86.6546 18.2609 86.3684 19.7182 85.8033 21.1019C85.2382 22.4782 84.4163 23.722 83.3669 24.7745L81.8258 26.3275L66.2387 11.026L67.3696 9.59178ZM4.19861 20.0052L20.0866 4.04139L29.091 13.1457L22.8092 19.5636L26.0748 22.8609L32.4227 16.4356L42.7113 26.8353L27.1903 43.2408L4.19861 20.0052ZM7.98458 85.2281L18.9418 57.6811L35.3655 74.1822L7.98458 85.2281ZM38.3449 70.642L22.4643 54.5899L62.6722 13.9553L78.4794 29.9265L38.3449 70.642ZM72.0582 88.5048L49.6096 65.9022L65.4902 49.85L75.3018 59.7713L68.9467 66.1966L72.2123 69.538L78.6409 63.0465L87.9315 72.5483L72.0582 88.5048Z" fill="url(#paint0_linear_244_113)"/>
<defs>
<linearGradient id="paint0_linear_244_113" x1="46" y1="0.273071" x2="46" y2="92.2731" gradientUnits="userSpaceOnUse">
<stop stop-color="#FF914D"/>
<stop offset="1" stop-color="#99572E"/>
</linearGradient>
</defs>
</svg>
