<svg width="82" height="83" viewBox="0 0 82 83" fill="none" xmlns="http://www.w3.org/2000/svg">
<rect y="0.5" width="82" height="82" rx="41" fill="url(#paint0_linear_212_227)"/>
<path d="M41.525 21.4833C52.5802 21.4833 61.5416 30.4978 61.5416 41.6229C61.5416 51.6725 54.2215 60.0042 44.6536 61.5167V47.4432H49.3175L50.2042 41.6229L44.6536 41.6208V37.75C44.6836 36.1912 45.4763 34.6989 47.9163 34.6989H50.4384V29.7405C50.4384 29.7405 48.1485 29.3458 45.9587 29.3458C41.4569 29.3458 38.4924 32.0485 38.4004 36.9465L38.3964 37.1821V41.6188H33.3161V47.4392H38.4004V61.5126C28.8284 60.0042 21.5083 51.6725 21.5083 41.6229C21.5083 30.4998 30.4698 21.4833 41.525 21.4833Z" fill="white"/>
<defs>
<linearGradient id="paint0_linear_212_227" x1="41" y1="0.5" x2="41" y2="82.5" gradientUnits="userSpaceOnUse">
<stop stop-color="#3F7FD2"/>
<stop offset="1" stop-color="#21416C"/>
</linearGradient>
</defs>
</svg>
