<svg width="82" height="83" viewBox="0 0 82 83" fill="none" xmlns="http://www.w3.org/2000/svg">
<rect y="0.5" width="82" height="82" rx="41" fill="url(#paint0_linear_228_86)"/>
<path d="M32.6 21.5H49.4C55.8 21.5 61 26.7 61 33.1V49.9C61 52.9765 59.7779 55.927 57.6024 58.1024C55.427 60.2779 52.4765 61.5 49.4 61.5H32.6C26.2 61.5 21 56.3 21 49.9V33.1C21 30.0235 22.2221 27.073 24.3976 24.8976C26.573 22.7221 29.5235 21.5 32.6 21.5ZM32.2 25.5C30.2904 25.5 28.4591 26.2586 27.1088 27.6088C25.7586 28.9591 25 30.7904 25 32.7V50.3C25 54.28 28.22 57.5 32.2 57.5H49.8C51.7096 57.5 53.5409 56.7414 54.8912 55.3912C56.2414 54.0409 57 52.2096 57 50.3V32.7C57 28.72 53.78 25.5 49.8 25.5H32.2ZM51.5 28.5C52.163 28.5 52.7989 28.7634 53.2678 29.2322C53.7366 29.7011 54 30.337 54 31C54 31.663 53.7366 32.2989 53.2678 32.7678C52.7989 33.2366 52.163 33.5 51.5 33.5C50.837 33.5 50.2011 33.2366 49.7322 32.7678C49.2634 32.2989 49 31.663 49 31C49 30.337 49.2634 29.7011 49.7322 29.2322C50.2011 28.7634 50.837 28.5 51.5 28.5ZM41 31.5C43.6522 31.5 46.1957 32.5536 48.0711 34.4289C49.9464 36.3043 51 38.8478 51 41.5C51 44.1522 49.9464 46.6957 48.0711 48.5711C46.1957 50.4464 43.6522 51.5 41 51.5C38.3478 51.5 35.8043 50.4464 33.9289 48.5711C32.0536 46.6957 31 44.1522 31 41.5C31 38.8478 32.0536 36.3043 33.9289 34.4289C35.8043 32.5536 38.3478 31.5 41 31.5ZM41 35.5C39.4087 35.5 37.8826 36.1321 36.7574 37.2574C35.6321 38.3826 35 39.9087 35 41.5C35 43.0913 35.6321 44.6174 36.7574 45.7426C37.8826 46.8679 39.4087 47.5 41 47.5C42.5913 47.5 44.1174 46.8679 45.2426 45.7426C46.3679 44.6174 47 43.0913 47 41.5C47 39.9087 46.3679 38.3826 45.2426 37.2574C44.1174 36.1321 42.5913 35.5 41 35.5Z" fill="white"/>
<defs>
<linearGradient id="paint0_linear_228_86" x1="41" y1="0.5" x2="41" y2="82.5" gradientUnits="userSpaceOnUse">
<stop stop-color="#FE008A"/>
<stop offset="1" stop-color="#980053"/>
</linearGradient>
</defs>
</svg>
