<svg width="15" height="21" viewBox="0 0 15 21" fill="none" xmlns="http://www.w3.org/2000/svg">
<path d="M7.36898 10.0973C6.67247 10.0973 6.00449 9.83123 5.51198 9.35759C5.01947 8.88395 4.74278 8.24155 4.74278 7.57171C4.74278 6.90188 5.01947 6.25948 5.51198 5.78584C6.00449 5.31219 6.67247 5.0461 7.36898 5.0461C8.06549 5.0461 8.73348 5.31219 9.22599 5.78584C9.71849 6.25948 9.99518 6.90188 9.99518 7.57171C9.99518 7.90338 9.92725 8.2318 9.79527 8.53822C9.6633 8.84464 9.46985 9.12307 9.22599 9.35759C8.98212 9.59212 8.69261 9.77815 8.37399 9.90507C8.05536 10.032 7.71386 10.0973 7.36898 10.0973ZM7.36898 0.5C5.41875 0.5 3.5484 1.24505 2.16937 2.57126C0.790351 3.89746 0.015625 5.69618 0.015625 7.57171C0.015625 12.8755 7.36898 20.7049 7.36898 20.7049C7.36898 20.7049 14.7223 12.8755 14.7223 7.57171C14.7223 5.69618 13.9476 3.89746 12.5686 2.57126C11.1896 1.24505 9.31921 0.5 7.36898 0.5Z" fill="#FF914D"/>
</svg>
