<svg width="93" height="94" viewBox="0 0 93 94" fill="none" xmlns="http://www.w3.org/2000/svg">
<path d="M46.5017 2.28703L58.0217 8.99224V17.1783L46.5017 10.474L17.9253 27.1049V69.9652H10.9134V28.9575H0.679199L46.5017 2.28703Z" fill="url(#paint0_linear_212_210)"/>
<path d="M30.9702 41.5432H60.6165V43.4114H30.9702V41.5432ZM30.9702 46.4851H60.6165V58.443H30.9702V46.4851ZM23.9574 69.9652H30.9693V60.6938H60.6156V69.9652H82.0863V28.9575H92.3206L70.2242 16.0966V24.2826L75.0745 27.1058V62.8736H67.6275V0.5H60.6156V34.4535H23.9565V69.9643" fill="url(#paint1_linear_212_210)"/>
<path d="M4.37367 89.1186L3.99085 75.3008C3.98543 75.1468 3.99988 75.0219 4.03689 74.9235C4.07211 74.8278 4.14705 74.7531 4.26262 74.6993C4.37819 74.6474 4.54251 74.6091 4.7565 74.5872C4.97048 74.5654 5.25399 74.5563 5.60882 74.5563C5.96366 74.5563 6.24085 74.5663 6.45483 74.5872C6.66972 74.6091 6.83314 74.6474 6.94962 74.6993C7.06518 74.7531 7.14103 74.8278 7.18076 74.9235C7.22048 75.0219 7.23673 75.1468 7.23041 75.3008L6.86565 88.0587H9.18788C9.33956 88.0587 9.45965 88.0724 9.54632 88.0988C9.633 88.1262 9.6953 88.1708 9.73413 88.2328C9.77205 88.2975 9.79552 88.3822 9.80545 88.4879C9.81358 88.5964 9.81719 88.7313 9.81719 88.8935C9.81719 89.0557 9.81358 89.1896 9.80545 89.2981C9.79552 89.4065 9.77205 89.4913 9.73413 89.5532C9.6953 89.6161 9.633 89.6608 9.54632 89.6872C9.45965 89.7145 9.33956 89.7273 9.18788 89.7273H5.60882C5.33705 89.7273 5.11946 89.7218 4.95784 89.7091C4.79261 89.6963 4.66982 89.6699 4.58675 89.627C4.50459 89.586 4.44952 89.5241 4.42333 89.443C4.39624 89.3619 4.37999 89.2525 4.37367 89.1158V89.1186ZM11.4902 86.9907L11.2401 77.476V77.3858C11.2401 76.9721 11.3142 76.5921 11.4623 76.2458C11.623 75.874 11.8767 75.5568 12.2225 75.2953C12.5701 75.0319 13.0188 74.826 13.5651 74.6784C14.1149 74.5335 14.775 74.4606 15.5451 74.4606C16.3153 74.4606 16.9672 74.5335 17.5152 74.6784C18.0642 74.826 18.5147 75.0319 18.865 75.2953C19.2145 75.5568 19.47 75.8749 19.6307 76.2458C19.7788 76.593 19.8528 76.973 19.8528 77.3858V77.476L19.5937 86.9907C19.581 87.3807 19.498 87.7498 19.3436 88.0961C19.191 88.4433 18.9535 88.7449 18.6303 89.0037C18.3071 89.2616 17.8917 89.4648 17.3834 89.6143C16.8769 89.7646 16.2647 89.8394 15.5469 89.8394C14.8291 89.8394 14.217 89.7646 13.7059 89.6143C13.1958 89.4648 12.7787 89.2616 12.4563 89.0037C12.1331 88.7458 11.8938 88.4433 11.7394 88.0961C11.585 87.7489 11.5029 87.3807 11.4921 86.9907H11.4902ZM14.3714 77.1953L14.1158 87.0709V87.152C14.1095 87.368 14.1294 87.5511 14.1772 87.7006C14.2242 87.8683 14.3073 88.0022 14.4246 88.0988C14.5438 88.1982 14.6946 88.2692 14.8788 88.3102C15.0639 88.3522 15.286 88.3731 15.546 88.3731C15.8061 88.3731 16.0291 88.3531 16.2133 88.3102C16.3984 88.2692 16.5491 88.1972 16.6674 88.0952C16.7866 87.9995 16.8697 87.8674 16.9175 87.6997C16.9654 87.5493 16.9852 87.3671 16.9798 87.1511V87.07L16.7234 77.1944C16.7171 76.9329 16.6873 76.7233 16.6331 76.5675C16.5798 76.4116 16.5031 76.2913 16.4047 76.2066C16.3081 76.1237 16.188 76.0681 16.0471 76.0407C15.9054 76.0134 15.7374 76.0006 15.5469 76.0006C15.3564 76.0006 15.1921 76.0134 15.0494 76.0407C14.9077 76.0681 14.7867 76.1228 14.6874 76.2066C14.5908 76.2913 14.5158 76.4116 14.4617 76.5675C14.4084 76.7233 14.3786 76.9329 14.3714 77.1944V77.1953ZM22.4125 89.1186L22.0297 75.3008C22.0252 75.1468 22.0414 75.0219 22.0757 74.9235C22.1109 74.8278 22.1859 74.7531 22.3014 74.6993C22.4179 74.6474 22.5831 74.6091 22.7953 74.5872C23.0093 74.5654 23.2937 74.5563 23.6504 74.5563H23.9375C24.0305 74.5563 24.1181 74.559 24.2002 74.5654H27.7693C27.9237 74.5654 28.0438 74.5781 28.1278 74.6036C28.2145 74.6264 28.2768 74.6711 28.3165 74.7376C28.3562 74.8041 28.3797 74.8934 28.3878 75.0064C28.3959 75.1203 28.3995 75.268 28.3995 75.4493C28.3995 75.6307 28.3959 75.7756 28.3878 75.8922C28.3797 76.0079 28.3562 76.0991 28.3165 76.1628C28.2768 76.2248 28.2145 76.2676 28.1278 76.2904C28.0438 76.315 27.9237 76.3278 27.7693 76.3278H25.2403L25.0832 81.841H27.2249C27.3802 81.841 27.5003 81.8529 27.587 81.8757C27.6709 81.9003 27.7332 81.944 27.772 82.0069C27.8118 82.0689 27.8352 82.1563 27.8434 82.2684C27.8515 82.3787 27.856 82.5209 27.856 82.6931C27.856 82.8653 27.8515 83.0093 27.8434 83.1196C27.8352 83.2317 27.8118 83.3191 27.772 83.382C27.7332 83.444 27.6709 83.4877 27.587 83.5133C27.5003 83.5351 27.3802 83.547 27.2249 83.547H25.0363L24.8756 89.1696C24.8756 89.2871 24.8629 89.3828 24.8358 89.4566C24.8088 89.5268 24.7537 89.5824 24.6697 89.6243C24.583 89.6681 24.4593 89.6972 24.2986 89.7118C24.1379 89.7264 23.9212 89.7337 23.6495 89.7337C23.3777 89.7337 23.1583 89.7282 22.9958 89.7154C22.8323 89.7027 22.7104 89.6763 22.6283 89.6334C22.5434 89.5924 22.4874 89.5305 22.4613 89.4493C22.4342 89.3682 22.4179 89.2589 22.4125 89.1222V89.1186ZM29.288 75.4375C29.288 75.257 29.2934 75.1103 29.3033 74.9982C29.3115 74.8834 29.3349 74.7941 29.3738 74.7276C29.4108 74.6611 29.4722 74.6164 29.5589 74.5936C29.6455 74.569 29.7656 74.5563 29.92 74.5563H36.4326C36.5869 74.5563 36.7061 74.5681 36.7901 74.5936C36.8768 74.6164 36.94 74.6611 36.9815 74.7276C37.0221 74.7941 37.0483 74.8843 37.0583 74.9982C37.0664 75.1103 37.07 75.257 37.07 75.4375C37.07 75.6179 37.0664 75.7637 37.0583 75.8804C37.0483 75.997 37.0221 76.0872 36.9815 76.151C36.94 76.2139 36.8759 76.2567 36.7901 76.2795C36.7061 76.3041 36.5869 76.3169 36.4326 76.3169H34.7676L34.4128 89.1659C34.4065 89.2835 34.3902 89.3792 34.3631 89.453C34.337 89.5232 34.2828 89.5787 34.1997 89.6207C34.1148 89.6644 33.9911 89.6936 33.8295 89.7081C33.667 89.7227 33.4485 89.73 33.1749 89.73C32.9014 89.73 32.6874 89.7245 32.5267 89.7118C32.3659 89.699 32.2422 89.6726 32.1565 89.6298C32.0725 89.5888 32.0174 89.5268 31.9921 89.4457C31.9696 89.3646 31.9551 89.2552 31.9497 89.1186L31.5849 76.3169H29.92C29.7656 76.3169 29.6455 76.305 29.5589 76.2795C29.4722 76.2567 29.4099 76.2139 29.3738 76.151C29.3349 76.0863 29.3115 75.997 29.3033 75.8804C29.2925 75.7637 29.288 75.617 29.288 75.4375ZM38.6564 86.8558L38.4957 81.8009V81.6943C38.4957 81.3043 38.5516 80.9416 38.6654 80.6072C38.7891 80.2417 38.9715 79.9283 39.2126 79.6658C39.4536 79.4025 39.7425 79.1965 40.0802 79.0489C40.417 78.904 40.7935 78.8302 41.2097 78.8302C41.4589 78.8302 41.6892 78.8621 41.9014 78.9277C42.1153 78.9933 42.3113 79.0771 42.4882 79.1765C42.667 79.274 42.8268 79.3833 42.9668 79.5036C43.1049 79.6221 43.2241 79.7351 43.3252 79.8444L43.2295 74.9071C43.2295 74.7804 43.243 74.6738 43.2692 74.5863C43.2954 74.5007 43.3577 74.4351 43.457 74.3868C43.5582 74.3385 43.7053 74.3038 43.8985 74.2801C44.0918 74.2592 44.3482 74.2492 44.6678 74.2492C44.9874 74.2492 45.2448 74.2601 45.4371 74.2801C45.6303 74.3029 45.7775 74.3385 45.8786 74.3868C45.9788 74.4341 46.0438 74.5007 46.07 74.5863C46.0971 74.6738 46.1097 74.7795 46.1097 74.9071L45.8352 89.2179C45.8352 89.3327 45.8199 89.4211 45.7883 89.4858C45.7603 89.5523 45.7043 89.6033 45.6222 89.6389C45.5373 89.6735 45.4208 89.6972 45.27 89.7109C45.1174 89.7236 44.917 89.7291 44.6678 89.7291C44.4376 89.7291 44.2525 89.7236 44.1116 89.7109C43.9735 89.6981 43.8678 89.6735 43.7938 89.6389C43.7198 89.6033 43.6692 89.5523 43.6421 89.4858C43.6159 89.4211 43.6024 89.3327 43.6024 89.2179V88.8752C43.4769 88.9901 43.3333 89.1031 43.1708 89.2179C43.0074 89.3327 42.8259 89.4348 42.6237 89.5259C42.4223 89.6198 42.2011 89.6945 41.9637 89.751C41.7271 89.8084 41.4725 89.8385 41.2007 89.8385C40.8134 89.8385 40.4676 89.7838 40.1633 89.6763C39.8581 89.5678 39.5972 89.3965 39.3823 89.1586C39.1638 88.9226 38.9932 88.6128 38.8695 88.2337C38.744 87.8528 38.6726 87.3944 38.6564 86.8558ZM41.2431 81.8009L41.1113 86.8558V86.9278C41.1167 87.3343 41.2215 87.6532 41.4228 87.881C41.635 88.1198 41.9311 88.2364 42.3122 88.231C42.5614 88.231 42.7844 88.1836 42.9821 88.0906C43.1826 87.9995 43.3496 87.8929 43.485 87.7726L43.3523 81.1476C43.2105 81.0264 43.0417 80.9207 42.8458 80.8295C42.6498 80.7357 42.4512 80.6892 42.2499 80.6892C42.1171 80.6892 41.9935 80.7092 41.8761 80.7475C41.7569 80.7858 41.6504 80.8468 41.5574 80.9343C41.4671 81.0218 41.393 81.1366 41.3352 81.2806C41.2793 81.4237 41.2486 81.5977 41.2422 81.8009H41.2431ZM48.3796 87.2513L48.1719 81.5576V81.451C48.1665 81.0191 48.2631 80.6418 48.4654 80.3201C48.6802 79.9729 48.971 79.6904 49.3394 79.4726C49.7059 79.253 50.1249 79.0908 50.5953 78.986C51.0675 78.8821 51.5496 78.8302 52.0435 78.8302C52.5112 78.8302 52.9699 78.8821 53.4204 78.986C53.871 79.0899 54.2718 79.253 54.6213 79.4754C54.9779 79.6913 55.256 79.9729 55.4591 80.3201C55.6487 80.6382 55.7399 81.0118 55.7336 81.4419V81.5576L55.6009 84.8711C55.5946 84.985 55.5747 85.0752 55.5422 85.1417C55.5088 85.2073 55.4483 85.2584 55.3589 85.2939C55.2704 85.3294 55.1449 85.3531 54.9824 85.365C54.8172 85.3777 54.6032 85.3841 54.3378 85.3841H50.867L50.8147 87.3224V87.3944C50.8147 87.5921 50.8382 87.7589 50.886 87.8965C50.933 88.0523 51.0079 88.1781 51.1081 88.2738C51.2092 88.3695 51.3338 88.4387 51.4819 88.4825C51.63 88.5244 51.7988 88.5454 51.9884 88.5454C52.3695 88.5454 52.6484 88.4615 52.8254 88.2929C53.0024 88.1243 53.0909 87.8282 53.0909 87.4044V87.1265C53.0909 87.0117 53.1062 86.9178 53.1369 86.8431C53.1658 86.7684 53.2236 86.7082 53.3103 86.6617C53.3969 86.618 53.5197 86.5879 53.6805 86.5688C53.8385 86.5496 54.0515 86.5405 54.3197 86.5405C54.5879 86.5405 54.7919 86.5496 54.9526 86.5688C55.1106 86.5879 55.2334 86.618 55.3201 86.6617C55.4068 86.7082 55.4637 86.7656 55.4898 86.8367C55.5169 86.9096 55.5305 87.0035 55.5305 87.1174V87.5092C55.5305 87.9831 55.4293 88.3695 55.2271 88.6684C55.0258 88.9673 54.7594 89.2051 54.4308 89.3792C54.1021 89.5514 53.7247 89.6708 53.3012 89.7373C52.8769 89.8029 52.4426 89.8366 51.9975 89.8366C51.5523 89.8366 51.1081 89.7929 50.682 89.7054C50.254 89.6179 49.873 89.4749 49.5398 89.2753C49.2039 89.073 48.9313 88.8087 48.7209 88.4807C48.5096 88.1499 48.3949 87.7398 48.3787 87.2495L48.3796 87.2513ZM50.9944 81.4055L50.914 84.0391H53.09L53.0042 81.4055C52.9979 81.153 52.969 80.9516 52.9175 80.7976C52.8679 80.6418 52.8001 80.5215 52.7135 80.4359C52.6268 80.3529 52.5266 80.2982 52.411 80.2709C52.2954 80.2436 52.1735 80.2308 52.0435 80.2308C51.8936 80.2308 51.7564 80.2436 51.6327 80.2709C51.5072 80.2982 51.3988 80.3529 51.3086 80.4359C51.2165 80.5215 51.1424 80.6418 51.0864 80.7976C51.0287 80.9516 50.9971 81.1539 50.9935 81.4055H50.9944ZM57.5836 83.0603L57.5304 81.4866V81.3799C57.5304 80.948 57.6288 80.5771 57.8238 80.2682C58.0378 79.931 58.3258 79.6576 58.6888 79.4453C59.049 79.2339 59.4635 79.078 59.933 78.9778C60.4007 78.8803 60.881 78.8311 61.3758 78.8311C61.8706 78.8311 62.3238 78.873 62.7807 78.9559C63.2366 79.0379 63.6429 79.1755 63.9969 79.3669C64.3526 79.5601 64.6316 79.818 64.8338 80.1397C65.0234 80.4322 65.1146 80.7949 65.1083 81.2268V81.3426L65.037 83.228C65.0325 83.3428 65.0144 83.4331 64.981 83.4987C64.9485 83.5634 64.888 83.6144 64.7986 83.6518C64.7083 83.6864 64.5819 83.7101 64.4194 83.7238C64.2569 83.7338 64.0411 83.7392 63.7738 83.7392C63.484 83.7392 63.2511 83.7338 63.0768 83.7238C62.9017 83.711 62.7671 83.6864 62.6714 83.6518C62.5766 83.6144 62.5134 83.5634 62.48 83.4987C62.4466 83.4331 62.4303 83.3419 62.4303 83.228L62.368 81.1904C62.3626 80.9926 62.3346 80.8323 62.285 80.7065C62.2335 80.5798 62.1658 80.4814 62.0818 80.4103C61.9952 80.3374 61.8922 80.29 61.7721 80.2673C61.6557 80.2427 61.522 80.2299 61.3749 80.2299C61.2277 80.2299 61.0905 80.2427 60.9668 80.27C60.8458 80.2973 60.741 80.3465 60.6517 80.4194C60.5632 80.4905 60.4936 80.5871 60.4422 80.7092C60.3934 80.8323 60.3654 80.9881 60.3591 81.1795L60.2968 83.1305V83.2025C60.2968 83.4704 60.3573 83.6882 60.4765 83.8568C60.6065 84.0482 60.8286 84.1912 61.1437 84.2869L63.3856 85.0943C63.689 85.2028 63.9373 85.3194 64.1323 85.4461C64.3282 85.5709 64.4835 85.7167 64.5982 85.8862C64.7138 86.0539 64.7914 86.2453 64.8329 86.4594C64.8636 86.6271 64.8799 86.813 64.8799 87.0171V87.2039L64.8609 87.6186C64.842 88.0314 64.7372 88.3786 64.5458 88.6593C64.3526 88.9418 64.0971 89.1705 63.7802 89.3482C63.4633 89.525 63.1012 89.6507 62.694 89.7246C62.2886 89.7993 61.8624 89.8375 61.4191 89.8375C60.9758 89.8375 60.5523 89.802 60.1153 89.7309C59.6792 89.6626 59.2856 89.5396 58.9362 89.3637C58.5868 89.1869 58.3023 88.9481 58.0847 88.6465C57.8644 88.3431 57.7543 87.9558 57.7543 87.4837V87.1165C57.7543 87.0016 57.7687 86.9078 57.7976 86.8358C57.8283 86.7647 57.887 86.7073 57.9728 86.6608C58.0577 86.6171 58.1805 86.587 58.3403 86.5679C58.501 86.5487 58.7123 86.5396 58.9741 86.5396C59.2359 86.5396 59.4526 86.5487 59.6133 86.5679C59.7731 86.587 59.8977 86.6171 59.9835 86.6608C60.0675 86.7073 60.1253 86.7674 60.1569 86.8422C60.1858 86.9169 60.1993 87.0108 60.1993 87.1256V87.5648C60.1993 87.9293 60.3059 88.1827 60.518 88.3285C60.7275 88.4715 61.0255 88.5435 61.4101 88.5435C61.7947 88.5435 62.0638 88.4606 62.2164 88.2975C62.3662 88.1307 62.4421 87.8573 62.4421 87.4755V87.0354C62.4421 86.8859 62.424 86.7565 62.3861 86.649C62.3473 86.5414 62.2895 86.4467 62.2109 86.3656C62.1342 86.2845 62.0358 86.2143 61.9148 86.1541C61.7929 86.0958 61.6521 86.0393 61.4913 85.9865L58.8576 85.0515C58.4378 84.9011 58.1245 84.6569 57.9186 84.3161C57.7155 83.9762 57.6035 83.557 57.5854 83.0603H57.5836ZM67.3682 89.2179L67.0838 79.5947C67.0838 79.4681 67.0974 79.3605 67.1236 79.2731C67.1507 79.1856 67.2139 79.119 67.315 79.0708C67.4152 79.0225 67.5633 78.9887 67.7565 78.9678C67.9479 78.9468 68.2043 78.9368 68.5258 78.9368C68.8472 78.9368 69.1009 78.9468 69.2941 78.9678C69.4873 78.9887 69.6354 79.0234 69.7356 79.0708C69.8368 79.1181 69.8999 79.1856 69.9243 79.2731C69.9514 79.3605 69.9641 79.4672 69.9641 79.5947L69.6887 89.2179C69.6887 89.3327 69.6751 89.4211 69.6462 89.4858C69.6155 89.5523 69.5578 89.6033 69.4765 89.6389C69.3943 89.6735 69.2761 89.6972 69.1235 89.7109C68.9736 89.7236 68.774 89.7291 68.5248 89.7291C68.2757 89.7291 68.0752 89.7236 67.9226 89.7109C67.7727 89.6981 67.6572 89.6735 67.5768 89.6389C67.4965 89.6033 67.4423 89.5523 67.4134 89.4858C67.3827 89.4211 67.3664 89.3327 67.3664 89.2179H67.3682ZM67.2455 77.0085L67.1371 75.257C67.1371 75.1322 67.1507 75.0265 67.1777 74.939C67.2039 74.8515 67.268 74.7841 67.3692 74.7367C67.4703 74.6884 67.6175 74.6547 67.8107 74.6337C68.0021 74.6128 68.2585 74.6027 68.5799 74.6027C68.9014 74.6027 69.1569 74.6128 69.3492 74.6337C69.5424 74.6547 69.6896 74.6884 69.7907 74.7367C69.8909 74.785 69.955 74.8524 69.9821 74.939C70.0092 75.0256 70.0218 75.1322 70.0218 75.257L69.9234 77.0085C69.9234 77.1224 69.9072 77.2117 69.8747 77.2764C69.8413 77.343 69.7781 77.3931 69.6833 77.4286C69.5885 77.466 69.4539 77.4906 69.2788 77.4997C69.1036 77.5125 68.8707 77.5188 68.5808 77.5188C68.291 77.5188 68.0572 77.5125 67.8829 77.4997C67.7086 77.4897 67.5741 77.466 67.4811 77.4286C67.3908 77.3931 67.3294 77.343 67.296 77.2764C67.2635 77.2117 67.2473 77.1224 67.2473 77.0085H67.2455ZM72.1202 86.8558L71.9603 81.8009V81.6943C71.9603 81.3043 72.0154 80.9416 72.1265 80.6072C72.252 80.2417 72.4353 79.9283 72.6763 79.6658C72.9156 79.4025 73.2045 79.1965 73.544 79.0489C73.8808 78.904 74.2573 78.8302 74.6708 78.8302C74.9209 78.8302 75.1512 78.8621 75.3633 78.9277C75.5728 78.9933 75.7669 79.0771 75.9439 79.1765C76.1227 79.274 76.2825 79.3815 76.4224 79.4981C76.5606 79.6148 76.6797 79.726 76.7809 79.8344V79.5947C76.7809 79.4681 76.7944 79.3605 76.8206 79.2731C76.8477 79.1856 76.91 79.119 77.0093 79.0708C77.1059 79.0225 77.244 78.9887 77.4255 78.9678C77.607 78.9468 77.849 78.9368 78.1515 78.9368C78.4539 78.9368 78.6959 78.9468 78.8774 78.9678C79.0562 78.9887 79.1925 79.0234 79.2846 79.0708C79.3776 79.1181 79.4372 79.1856 79.4643 79.2731C79.4904 79.3605 79.504 79.4672 79.504 79.5947L79.2719 90.9037C79.2602 91.3968 79.1654 91.8087 78.9911 92.1413C78.8169 92.4721 78.5704 92.7382 78.2535 92.9386C77.9366 93.1382 77.5519 93.2813 77.1014 93.3688C76.6508 93.4562 76.1434 93.5 75.5791 93.5C75.1665 93.5 74.836 93.4891 74.5914 93.4681C74.3494 93.4481 74.1498 93.4216 73.9955 93.3906C73.925 93.3797 73.8681 93.3615 73.8221 93.3341C73.7788 93.3077 73.7472 93.2676 73.7264 93.2129C73.7056 93.1583 73.6903 93.0854 73.6794 92.9915C73.6713 92.9004 73.6677 92.7819 73.6677 92.6361C73.6677 92.3317 73.6876 92.1167 73.73 91.9946C73.7706 91.8715 73.86 91.8169 73.9955 91.8296C74.1399 91.8424 74.3232 91.8615 74.5444 91.8879C74.7674 91.9153 75.0735 91.9289 75.4654 91.9289C75.72 91.9289 75.9394 91.9071 76.1227 91.8661C76.306 91.8223 76.454 91.7531 76.5678 91.6574C76.6815 91.5617 76.761 91.4332 76.8089 91.2737C76.8495 91.1343 76.8712 90.9666 76.8712 90.7698V90.6987L76.8278 89.0748C76.5777 89.2726 76.2734 89.4493 75.9132 89.6043C75.5547 89.7601 75.1394 89.8385 74.6654 89.8385C74.279 89.8385 73.9323 89.7838 73.628 89.6763C73.3237 89.5678 73.0619 89.3965 72.8434 89.1586C72.6276 88.9226 72.4569 88.6128 72.3341 88.2337C72.2086 87.8528 72.1373 87.3944 72.1211 86.8558H72.1202ZM74.7078 81.8009L74.5751 86.8558V86.9278C74.5751 87.3343 74.6798 87.6532 74.8875 87.881C75.0997 88.1143 75.3958 88.231 75.7769 88.231C75.9827 88.231 76.1723 88.1982 76.3448 88.1316C76.5172 88.0669 76.6689 87.9858 76.7989 87.8883L76.6382 81.0136C76.5019 80.9225 76.3538 80.8459 76.1931 80.783C76.0324 80.7202 75.8717 80.6901 75.7109 80.6901C75.5809 80.6901 75.4572 80.7101 75.3372 80.7484C75.2207 80.7867 75.115 80.8477 75.0229 80.9352C74.9327 81.0227 74.8577 81.1375 74.7999 81.2815C74.7439 81.4246 74.7132 81.5986 74.7078 81.8019V81.8009ZM81.9201 89.2179L81.6357 79.5947C81.6357 79.4681 81.6492 79.3605 81.6763 79.2731C81.7025 79.1856 81.763 79.119 81.8551 79.0708C81.9454 79.0225 82.0808 78.9887 82.2623 78.9678C82.4438 78.9468 82.6858 78.9368 82.9882 78.9368C83.2907 78.9368 83.5327 78.9468 83.7141 78.9678C83.8956 78.9887 84.0311 79.0234 84.1214 79.0708C84.2144 79.1181 84.2739 79.1856 84.301 79.2731C84.3272 79.3605 84.3408 79.4672 84.3408 79.5947L84.3218 80.1406C84.4879 79.9492 84.6595 79.7752 84.8346 79.6166C85.0098 79.4571 85.1967 79.3195 85.3935 79.202C85.5931 79.0853 85.8052 78.9942 86.0292 78.9286C86.2549 78.863 86.5023 78.8311 86.7668 78.8311C87.1298 78.8311 87.4657 78.8967 87.7763 79.0279C88.0887 79.1582 88.3577 79.3496 88.5825 79.6011C88.8083 79.8526 88.9807 80.157 89.0972 80.517C89.2109 80.8468 89.2642 81.2159 89.2579 81.6223V81.7381L89.0448 89.2179C89.0448 89.3327 89.0295 89.4211 88.9988 89.4858C88.9699 89.5523 88.9148 89.6033 88.8326 89.6389C88.7487 89.6735 88.6313 89.6972 88.4805 89.7109C88.3279 89.7236 88.1284 89.7291 87.8783 89.7291C87.6282 89.7291 87.4305 89.7236 87.2797 89.7109C87.1298 89.6981 87.0133 89.6735 86.9339 89.6389C86.8535 89.6033 86.7984 89.5523 86.7677 89.4858C86.7379 89.4211 86.7244 89.3327 86.7244 89.2179L86.5203 82.0005C86.5149 81.7654 86.4842 81.5704 86.4309 81.4146C86.3768 81.2587 86.3064 81.1357 86.2179 81.0473C86.1285 80.9571 86.0247 80.8951 85.9028 80.8605C85.7791 80.8222 85.6463 80.804 85.5046 80.804C85.2798 80.804 85.082 80.8669 84.9087 80.9936C84.738 81.1184 84.5891 81.2678 84.4636 81.4428L84.2414 89.2179C84.2414 89.3327 84.227 89.4211 84.1981 89.4858C84.1674 89.5523 84.1105 89.6033 84.0284 89.6389C83.9462 89.6735 83.8279 89.6972 83.6762 89.7109C83.5264 89.7236 83.3259 89.7291 83.0767 89.7291C82.8275 89.7291 82.6271 89.7236 82.4745 89.7109C82.3246 89.6981 82.209 89.6735 82.1296 89.6389C82.0483 89.6033 81.995 89.5523 81.9653 89.4858C81.9346 89.4211 81.9183 89.3327 81.9183 89.2179H81.9201Z" fill="#FF914D"/>
<defs>
<linearGradient id="paint0_linear_212_210" x1="29.3504" y1="2.28703" x2="29.3504" y2="69.9652" gradientUnits="userSpaceOnUse">
<stop stop-color="white"/>
<stop offset="1" stop-color="#999999"/>
</linearGradient>
<linearGradient id="paint1_linear_212_210" x1="58.1386" y1="0.5" x2="58.1386" y2="69.9652" gradientUnits="userSpaceOnUse">
<stop stop-color="white"/>
<stop offset="1" stop-color="#999999"/>
</linearGradient>
</defs>
</svg>
