<svg width="92" height="93" viewBox="0 0 92 93" fill="none" xmlns="http://www.w3.org/2000/svg">
<path d="M45.8225 1.78703L57.3425 8.49224V16.6783L45.8225 9.97399L17.2461 26.6049V69.4652H10.2342V28.4575H0L45.8225 1.78703Z" fill="#3D3D3D"/>
<path d="M30.291 41.0432H59.9373V42.9114H30.291V41.0432ZM30.291 45.9851H59.9373V57.943H30.291V45.9851ZM23.2782 69.4652H30.2901V60.1938H59.9364V69.4652H81.4071V28.4575H91.6414L69.545 15.5966V23.7826L74.3953 26.6058V62.3736H66.9483V0H59.9364V33.9535H23.2773V69.4643" fill="#3D3D3D"/>
<path d="M3.69447 88.6185L3.31165 74.8008C3.30623 74.6468 3.32068 74.5219 3.3577 74.4235C3.39291 74.3278 3.46785 74.2531 3.58342 74.1993C3.69899 74.1474 3.86331 74.1091 4.0773 74.0872C4.29128 74.0654 4.57479 74.0562 4.92963 74.0562C5.28446 74.0562 5.56165 74.0663 5.77563 74.0872C5.99052 74.1091 6.15394 74.1474 6.27042 74.1993C6.38599 74.2531 6.46183 74.3278 6.50156 74.4235C6.54128 74.5219 6.55753 74.6468 6.55121 74.8008L6.18645 87.5587H8.50868C8.66036 87.5587 8.78045 87.5724 8.86713 87.5988C8.9538 87.6262 9.0161 87.6708 9.05493 87.7328C9.09285 87.7975 9.11632 87.8822 9.12625 87.9879C9.13438 88.0964 9.13799 88.2312 9.13799 88.3935C9.13799 88.5557 9.13438 88.6896 9.12625 88.7981C9.11632 88.9065 9.09285 88.9913 9.05493 89.0532C9.0161 89.1161 8.9538 89.1608 8.86713 89.1872C8.78045 89.2145 8.66036 89.2273 8.50868 89.2273H4.92963C4.65786 89.2273 4.44026 89.2218 4.27864 89.2091C4.11341 89.1963 3.99062 89.1699 3.90755 89.127C3.82539 89.086 3.77032 89.0241 3.74413 88.943C3.71705 88.8619 3.70079 88.7525 3.69447 88.6158V88.6185ZM10.811 86.4907L10.5609 76.976V76.8858C10.5609 76.4721 10.635 76.0921 10.7831 75.7458C10.9438 75.374 11.1975 75.0568 11.5433 74.7953C11.8909 74.5319 12.3396 74.326 12.8859 74.1784C13.4357 74.0335 14.0958 73.9606 14.8659 73.9606C15.6361 73.9606 16.288 74.0335 16.836 74.1784C17.385 74.326 17.8355 74.5319 18.1858 74.7953C18.5353 75.0568 18.7908 75.3749 18.9515 75.7458C19.0996 76.093 19.1736 76.473 19.1736 76.8858V76.976L18.9145 86.4907C18.9018 86.8807 18.8188 87.2498 18.6644 87.5961C18.5118 87.9433 18.2743 88.2449 17.9511 88.5037C17.6279 88.7616 17.2125 88.9648 16.7042 89.1143C16.1977 89.2646 15.5855 89.3394 14.8677 89.3394C14.1499 89.3394 13.5378 89.2646 13.0267 89.1143C12.5166 88.9648 12.0995 88.7616 11.7771 88.5037C11.4539 88.2458 11.2146 87.9433 11.0602 87.5961C10.9058 87.2489 10.8237 86.8807 10.8129 86.4907H10.811ZM13.6922 76.6953L13.4366 86.5709V86.652C13.4303 86.868 13.4502 87.0511 13.498 87.2006C13.545 87.3683 13.6281 87.5022 13.7454 87.5988C13.8646 87.6981 14.0154 87.7692 14.1996 87.8102C14.3847 87.8522 14.6068 87.8731 14.8668 87.8731C15.1269 87.8731 15.3499 87.8531 15.5341 87.8102C15.7192 87.7692 15.8699 87.6972 15.9882 87.5952C16.1074 87.4995 16.1905 87.3674 16.2383 87.1997C16.2862 87.0493 16.306 86.8671 16.3006 86.6511V86.57L16.0442 76.6944C16.0379 76.4329 16.0081 76.2233 15.9539 76.0674C15.9006 75.9116 15.8239 75.7913 15.7255 75.7066C15.6289 75.6237 15.5088 75.5681 15.3679 75.5407C15.2262 75.5134 15.0582 75.5006 14.8677 75.5006C14.6772 75.5006 14.5129 75.5134 14.3702 75.5407C14.2285 75.5681 14.1075 75.6227 14.0082 75.7066C13.9116 75.7913 13.8366 75.9116 13.7825 76.0674C13.7292 76.2233 13.6994 76.4329 13.6922 76.6944V76.6953ZM21.7333 88.6185L21.3505 74.8008C21.346 74.6468 21.3622 74.5219 21.3965 74.4235C21.4317 74.3278 21.5067 74.2531 21.6222 74.1993C21.7387 74.1474 21.9039 74.1091 22.1161 74.0872C22.3301 74.0654 22.6145 74.0562 22.9712 74.0562H23.2583C23.3513 74.0562 23.4389 74.059 23.521 74.0654H27.0901C27.2445 74.0654 27.3646 74.0781 27.4486 74.1036C27.5353 74.1264 27.5976 74.1711 27.6373 74.2376C27.677 74.3041 27.7005 74.3934 27.7086 74.5064C27.7167 74.6203 27.7204 74.768 27.7204 74.9493C27.7204 75.1307 27.7167 75.2755 27.7086 75.3922C27.7005 75.5079 27.677 75.599 27.6373 75.6628C27.5976 75.7248 27.5353 75.7676 27.4486 75.7904C27.3646 75.815 27.2445 75.8278 27.0901 75.8278H24.5611L24.404 81.341H26.5457C26.701 81.341 26.8211 81.3529 26.9078 81.3757C26.9917 81.4003 27.054 81.444 27.0928 81.5069C27.1326 81.5689 27.156 81.6563 27.1642 81.7684C27.1723 81.8787 27.1768 82.0209 27.1768 82.1931C27.1768 82.3653 27.1723 82.5093 27.1642 82.6196C27.156 82.7317 27.1326 82.8191 27.0928 82.882C27.054 82.944 26.9917 82.9877 26.9078 83.0132C26.8211 83.0351 26.701 83.047 26.5457 83.047H24.3571L24.1964 88.6696C24.1964 88.7871 24.1837 88.8828 24.1566 88.9566C24.1296 89.0268 24.0745 89.0824 23.9905 89.1243C23.9038 89.168 23.7801 89.1972 23.6194 89.2118C23.4587 89.2264 23.242 89.2337 22.9703 89.2337C22.6985 89.2337 22.4791 89.2282 22.3166 89.2154C22.1531 89.2027 22.0312 89.1762 21.9491 89.1334C21.8642 89.0924 21.8082 89.0304 21.7821 88.9493C21.755 88.8682 21.7387 88.7589 21.7333 88.6222V88.6185ZM28.6088 74.9375C28.6088 74.757 28.6142 74.6103 28.6241 74.4982C28.6323 74.3834 28.6557 74.2941 28.6946 74.2276C28.7316 74.161 28.793 74.1164 28.8797 74.0936C28.9663 74.069 29.0864 74.0562 29.2408 74.0562H35.7534C35.9078 74.0562 36.0269 74.0681 36.1109 74.0936C36.1976 74.1164 36.2608 74.161 36.3023 74.2276C36.3429 74.2941 36.3691 74.3843 36.3791 74.4982C36.3872 74.6103 36.3908 74.757 36.3908 74.9375C36.3908 75.1179 36.3872 75.2637 36.3791 75.3803C36.3691 75.497 36.3429 75.5872 36.3023 75.651C36.2608 75.7139 36.1967 75.7567 36.1109 75.7795C36.0269 75.8041 35.9078 75.8168 35.7534 75.8168H34.0884L33.7336 88.6659C33.7273 88.7835 33.711 88.8792 33.6839 88.953C33.6578 89.0232 33.6036 89.0787 33.5205 89.1207C33.4356 89.1644 33.3119 89.1936 33.1503 89.2081C32.9878 89.2227 32.7693 89.23 32.4957 89.23C32.2222 89.23 32.0082 89.2245 31.8475 89.2118C31.6867 89.199 31.563 89.1726 31.4773 89.1298C31.3933 89.0888 31.3382 89.0268 31.3129 88.9457C31.2904 88.8646 31.2759 88.7552 31.2705 88.6185L30.9057 75.8168H29.2408C29.0864 75.8168 28.9663 75.805 28.8797 75.7795C28.793 75.7567 28.7307 75.7139 28.6946 75.651C28.6557 75.5863 28.6323 75.497 28.6241 75.3803C28.6133 75.2637 28.6088 75.117 28.6088 74.9375ZM37.9772 86.3558L37.8165 81.3009V81.1943C37.8165 80.8043 37.8724 80.4416 37.9862 80.1072C38.1099 79.7417 38.2923 79.4283 38.5334 79.1658C38.7744 78.9024 39.0633 78.6965 39.401 78.5489C39.7378 78.404 40.1143 78.3302 40.5305 78.3302C40.7797 78.3302 41.01 78.3621 41.2222 78.4277C41.4361 78.4933 41.6321 78.5771 41.809 78.6764C41.9878 78.774 42.1476 78.8833 42.2876 79.0036C42.4257 79.1221 42.5449 79.2351 42.646 79.3444L42.5503 74.4071C42.5503 74.2804 42.5638 74.1738 42.59 74.0863C42.6162 74.0007 42.6785 73.935 42.7778 73.8868C42.879 73.8385 43.0261 73.8038 43.2193 73.7801C43.4126 73.7592 43.669 73.7491 43.9886 73.7491C44.3082 73.7491 44.5656 73.7601 44.7579 73.7801C44.9511 73.8029 45.0983 73.8385 45.1994 73.8868C45.2996 73.9341 45.3646 74.0007 45.3908 74.0863C45.4179 74.1738 45.4305 74.2795 45.4305 74.4071L45.156 88.7179C45.156 88.8327 45.1407 88.9211 45.1091 88.9858C45.0811 89.0523 45.0251 89.1033 44.943 89.1389C44.8581 89.1735 44.7416 89.1972 44.5908 89.2109C44.4382 89.2236 44.2378 89.2291 43.9886 89.2291C43.7584 89.2291 43.5733 89.2236 43.4324 89.2109C43.2943 89.1981 43.1886 89.1735 43.1146 89.1389C43.0406 89.1033 42.99 89.0523 42.9629 88.9858C42.9367 88.9211 42.9232 88.8327 42.9232 88.7179V88.3752C42.7977 88.49 42.6541 88.603 42.4916 88.7179C42.3282 88.8327 42.1467 88.9348 41.9445 89.0259C41.7431 89.1197 41.5219 89.1945 41.2845 89.251C41.0479 89.3084 40.7933 89.3385 40.5215 89.3385C40.1342 89.3385 39.7884 89.2838 39.4841 89.1762C39.1789 89.0678 38.918 88.8965 38.7031 88.6586C38.4846 88.4226 38.314 88.1128 38.1903 87.7337C38.0648 87.3528 37.9934 86.8944 37.9772 86.3558ZM40.5639 81.3009L40.4321 86.3558V86.4278C40.4375 86.8342 40.5423 87.1532 40.7436 87.381C40.9558 87.6198 41.252 87.7364 41.633 87.7309C41.8822 87.7309 42.1052 87.6836 42.3029 87.5906C42.5034 87.4995 42.6704 87.3929 42.8058 87.2726L42.6731 80.6476C42.5313 80.5264 42.3625 80.4206 42.1666 80.3295C41.9707 80.2357 41.772 80.1892 41.5707 80.1892C41.4379 80.1892 41.3143 80.2092 41.1969 80.2475C41.0777 80.2858 40.9712 80.3468 40.8782 80.4343C40.7879 80.5218 40.7138 80.6366 40.656 80.7806C40.6001 80.9237 40.5694 81.0977 40.563 81.3009H40.5639ZM47.7004 86.7513L47.4927 81.0576V80.951C47.4873 80.5191 47.5839 80.1418 47.7862 79.8201C48.001 79.4729 48.2918 79.1904 48.6602 78.9726C49.0267 78.753 49.4457 78.5908 49.9161 78.486C50.3883 78.3821 50.8704 78.3302 51.3643 78.3302C51.832 78.3302 52.2907 78.3821 52.7412 78.486C53.1918 78.5899 53.5926 78.753 53.9421 78.9754C54.2987 79.1913 54.5768 79.4729 54.7799 79.8201C54.9695 80.1381 55.0607 80.5118 55.0544 80.9419V81.0576L54.9217 84.3711C54.9154 84.485 54.8955 84.5752 54.863 84.6417C54.8296 84.7073 54.7691 84.7583 54.6797 84.7939C54.5912 84.8294 54.4657 84.8531 54.3032 84.865C54.138 84.8777 53.924 84.8841 53.6586 84.8841H50.1878L50.1355 86.8224V86.8944C50.1355 87.0921 50.159 87.2589 50.2068 87.3965C50.2538 87.5523 50.3287 87.6781 50.4289 87.7738C50.53 87.8695 50.6546 87.9387 50.8027 87.9825C50.9508 88.0244 51.1196 88.0453 51.3092 88.0453C51.6903 88.0453 51.9692 87.9615 52.1462 87.7929C52.3232 87.6243 52.4117 87.3282 52.4117 86.9044V86.6265C52.4117 86.5117 52.427 86.4178 52.4577 86.3431C52.4866 86.2683 52.5444 86.2082 52.6311 86.1617C52.7177 86.118 52.8405 86.0879 53.0013 86.0688C53.1593 86.0496 53.3723 86.0405 53.6405 86.0405C53.9087 86.0405 54.1127 86.0496 54.2734 86.0688C54.4314 86.0879 54.5542 86.118 54.6409 86.1617C54.7276 86.2082 54.7845 86.2656 54.8106 86.3367C54.8377 86.4096 54.8513 86.5035 54.8513 86.6174V87.0092C54.8513 87.4831 54.7501 87.8695 54.5479 88.1684C54.3466 88.4673 54.0802 88.7051 53.7516 88.8792C53.4229 89.0514 53.0455 89.1708 52.622 89.2373C52.1977 89.3029 51.7634 89.3366 51.3183 89.3366C50.8731 89.3366 50.4289 89.2929 50.0028 89.2054C49.5748 89.1179 49.1938 88.9749 48.8606 88.7753C48.5247 88.573 48.2521 88.3087 48.0417 87.9806C47.8304 87.6498 47.7157 87.2398 47.6995 86.7495L47.7004 86.7513ZM50.3152 80.9054L50.2348 83.5391H52.4108L52.325 80.9054C52.3187 80.653 52.2898 80.4516 52.2383 80.2976C52.1887 80.1418 52.1209 80.0215 52.0343 79.9358C51.9476 79.8529 51.8474 79.7982 51.7318 79.7709C51.6162 79.7436 51.4943 79.7308 51.3643 79.7308C51.2144 79.7308 51.0772 79.7436 50.9535 79.7709C50.828 79.7982 50.7197 79.8529 50.6294 79.9358C50.5373 80.0215 50.4632 80.1418 50.4072 80.2976C50.3495 80.4516 50.3179 80.6539 50.3143 80.9054H50.3152ZM56.9044 82.5603L56.8512 80.9866V80.8799C56.8512 80.448 56.9496 80.0771 57.1446 79.7682C57.3586 79.431 57.6466 79.1576 58.0096 78.9453C58.3698 78.7339 58.7843 78.578 59.2538 78.4778C59.7215 78.3803 60.2018 78.3311 60.6966 78.3311C61.1914 78.3311 61.6446 78.373 62.1015 78.4559C62.5574 78.5379 62.9637 78.6755 63.3177 78.8669C63.6734 79.0601 63.9524 79.318 64.1546 79.6397C64.3442 79.9322 64.4354 80.2949 64.4291 80.7268V80.8426L64.3578 82.728C64.3533 82.8428 64.3352 82.933 64.3018 82.9987C64.2693 83.0634 64.2088 83.1144 64.1194 83.1518C64.0291 83.1864 63.9027 83.2101 63.7402 83.2238C63.5777 83.2338 63.3619 83.2392 63.0946 83.2392C62.8048 83.2392 62.5719 83.2338 62.3976 83.2238C62.2225 83.211 62.0879 83.1864 61.9922 83.1518C61.8974 83.1144 61.8342 83.0634 61.8008 82.9987C61.7674 82.933 61.7511 82.8419 61.7511 82.728L61.6888 80.6904C61.6834 80.4926 61.6554 80.3323 61.6058 80.2065C61.5543 80.0798 61.4866 79.9814 61.4026 79.9103C61.316 79.8374 61.213 79.79 61.0929 79.7673C60.9765 79.7427 60.8428 79.7299 60.6957 79.7299C60.5485 79.7299 60.4113 79.7426 60.2876 79.77C60.1666 79.7973 60.0618 79.8465 59.9725 79.9194C59.884 79.9905 59.8145 80.0871 59.763 80.2092C59.7142 80.3323 59.6862 80.4881 59.6799 80.6795L59.6176 82.6305V82.7025C59.6176 82.9704 59.6781 83.1882 59.7973 83.3568C59.9273 83.5482 60.1494 83.6912 60.4645 83.7869L62.7064 84.5943C63.0098 84.7028 63.2581 84.8194 63.4531 84.9461C63.649 85.0709 63.8043 85.2167 63.919 85.3862C64.0346 85.5539 64.1122 85.7453 64.1537 85.9594C64.1844 86.1271 64.2007 86.313 64.2007 86.5171V86.7039L64.1817 87.1186C64.1628 87.5314 64.058 87.8786 63.8666 88.1593C63.6734 88.4418 63.4179 88.6705 63.101 88.8482C62.7841 89.025 62.422 89.1507 62.0148 89.2245C61.6094 89.2993 61.1832 89.3375 60.7399 89.3375C60.2966 89.3375 59.8731 89.302 59.4361 89.2309C59 89.1626 58.6064 89.0396 58.257 88.8637C57.9075 88.6869 57.6231 88.4481 57.4055 88.1465C57.1852 87.843 57.0751 87.4557 57.0751 86.9837V86.6165C57.0751 86.5016 57.0895 86.4078 57.1184 86.3358C57.1491 86.2647 57.2078 86.2073 57.2936 86.1608C57.3785 86.1171 57.5013 86.087 57.6611 86.0679C57.8218 86.0487 58.0331 86.0396 58.2949 86.0396C58.5567 86.0396 58.7734 86.0487 58.9341 86.0679C59.0939 86.087 59.2185 86.1171 59.3043 86.1608C59.3883 86.2073 59.4461 86.2674 59.4777 86.3422C59.5066 86.4169 59.5201 86.5107 59.5201 86.6256V87.0648C59.5201 87.4293 59.6267 87.6827 59.8388 87.8285C60.0483 87.9715 60.3463 88.0435 60.7309 88.0435C61.1155 88.0435 61.3846 87.9606 61.5372 87.7975C61.687 87.6307 61.7629 87.3573 61.7629 86.9755V86.5353C61.7629 86.3859 61.7448 86.2565 61.7069 86.149C61.6681 86.0414 61.6103 85.9467 61.5317 85.8656C61.455 85.7845 61.3566 85.7143 61.2356 85.6541C61.1137 85.5958 60.9729 85.5393 60.8121 85.4865L58.1784 84.5515C57.7586 84.4011 57.4453 84.1569 57.2394 83.8161C57.0363 83.4762 56.9243 83.057 56.9062 82.5603H56.9044ZM66.6891 88.7179L66.4046 79.0947C66.4046 78.9681 66.4182 78.8605 66.4444 78.773C66.4715 78.6856 66.5347 78.619 66.6358 78.5707C66.736 78.5224 66.8841 78.4887 67.0773 78.4678C67.2687 78.4468 67.5251 78.4368 67.8466 78.4368C68.168 78.4368 68.4217 78.4468 68.6149 78.4678C68.8081 78.4887 68.9562 78.5234 69.0564 78.5707C69.1576 78.6181 69.2208 78.6856 69.2451 78.773C69.2722 78.8605 69.2849 78.9672 69.2849 79.0947L69.0095 88.7179C69.0095 88.8327 68.9959 88.9211 68.967 88.9858C68.9363 89.0523 68.8786 89.1033 68.7973 89.1389C68.7151 89.1735 68.5969 89.1972 68.4443 89.2109C68.2944 89.2236 68.0948 89.2291 67.8457 89.2291C67.5965 89.2291 67.396 89.2236 67.2434 89.2109C67.0935 89.1981 66.978 89.1735 66.8976 89.1389C66.8173 89.1033 66.7631 89.0523 66.7342 88.9858C66.7035 88.9211 66.6872 88.8327 66.6872 88.7179H66.6891ZM66.5663 76.5085L66.4579 74.757C66.4579 74.6322 66.4715 74.5265 66.4985 74.439C66.5247 74.3515 66.5888 74.2841 66.69 74.2367C66.7911 74.1884 66.9382 74.1547 67.1315 74.1337C67.3229 74.1128 67.5793 74.1027 67.9007 74.1027C68.2222 74.1027 68.4777 74.1128 68.67 74.1337C68.8632 74.1547 69.0104 74.1884 69.1115 74.2367C69.2117 74.285 69.2758 74.3524 69.3029 74.439C69.33 74.5256 69.3426 74.6322 69.3426 74.757L69.2442 76.5085C69.2442 76.6224 69.228 76.7117 69.1955 76.7764C69.1621 76.843 69.0989 76.8931 69.0041 76.9286C68.9093 76.966 68.7747 76.9906 68.5996 76.9997C68.4244 77.0125 68.1915 77.0188 67.9016 77.0188C67.6118 77.0188 67.378 77.0125 67.2037 76.9997C67.0294 76.9897 66.8949 76.966 66.8019 76.9286C66.7116 76.8931 66.6502 76.843 66.6168 76.7764C66.5843 76.7117 66.5681 76.6224 66.5681 76.5085H66.5663ZM71.441 86.3558L71.2811 81.3009V81.1943C71.2811 80.8043 71.3362 80.4416 71.4473 80.1072C71.5728 79.7417 71.7561 79.4283 71.9971 79.1658C72.2364 78.9024 72.5253 78.6965 72.8648 78.5489C73.2016 78.404 73.5781 78.3302 73.9916 78.3302C74.2417 78.3302 74.472 78.3621 74.6841 78.4277C74.8936 78.4933 75.0877 78.5771 75.2647 78.6764C75.4435 78.774 75.6033 78.8815 75.7432 78.9981C75.8814 79.1148 76.0005 79.226 76.1017 79.3344V79.0947C76.1017 78.9681 76.1152 78.8605 76.1414 78.773C76.1685 78.6856 76.2308 78.619 76.3301 78.5707C76.4267 78.5224 76.5649 78.4887 76.7463 78.4678C76.9278 78.4468 77.1698 78.4368 77.4723 78.4368C77.7747 78.4368 78.0167 78.4468 78.1982 78.4678C78.377 78.4887 78.5133 78.5234 78.6054 78.5707C78.6984 78.6181 78.758 78.6856 78.7851 78.773C78.8112 78.8605 78.8248 78.9672 78.8248 79.0947L78.5927 90.4037C78.581 90.8967 78.4862 91.3086 78.3119 91.6413C78.1377 91.9721 77.8912 92.2382 77.5743 92.4386C77.2574 92.6382 76.8727 92.7813 76.4222 92.8688C75.9717 92.9562 75.4642 93 74.8999 93C74.4873 93 74.1568 92.9891 73.9122 92.9681C73.6702 92.948 73.4707 92.9216 73.3163 92.8906C73.2458 92.8797 73.1889 92.8615 73.1429 92.8341C73.0996 92.8077 73.068 92.7676 73.0472 92.7129C73.0264 92.6583 73.0111 92.5854 73.0002 92.4915C72.9921 92.4004 72.9885 92.2819 72.9885 92.1361C72.9885 91.8317 73.0084 91.6167 73.0508 91.4945C73.0914 91.3715 73.1808 91.3168 73.3163 91.3296C73.4607 91.3424 73.644 91.3615 73.8652 91.3879C74.0882 91.4153 74.3943 91.4289 74.7862 91.4289C75.0408 91.4289 75.2602 91.4071 75.4435 91.3661C75.6268 91.3223 75.7748 91.2531 75.8886 91.1574C76.0024 91.0617 76.0818 90.9332 76.1297 90.7737C76.1703 90.6343 76.192 90.4666 76.192 90.2698V90.1987L76.1486 88.5748C75.8985 88.7725 75.5942 88.9493 75.234 89.1043C74.8755 89.2601 74.4602 89.3385 73.9862 89.3385C73.5998 89.3385 73.2531 89.2838 72.9488 89.1762C72.6445 89.0678 72.3827 88.8965 72.1642 88.6586C71.9484 88.4226 71.7777 88.1128 71.6549 87.7337C71.5294 87.3528 71.4581 86.8944 71.4419 86.3558H71.441ZM74.0286 81.3009L73.8959 86.3558V86.4278C73.8959 86.8342 74.0006 87.1532 74.2083 87.381C74.4205 87.6143 74.7166 87.7309 75.0977 87.7309C75.3035 87.7309 75.4931 87.6981 75.6656 87.6316C75.838 87.5669 75.9897 87.4858 76.1197 87.3883L75.959 80.5136C75.8227 80.4225 75.6746 80.3459 75.5139 80.283C75.3532 80.2202 75.1925 80.1901 75.0317 80.1901C74.9017 80.1901 74.778 80.2101 74.658 80.2484C74.5415 80.2867 74.4358 80.3477 74.3437 80.4352C74.2535 80.5227 74.1785 80.6375 74.1207 80.7815C74.0648 80.9246 74.0341 81.0986 74.0286 81.3019V81.3009ZM81.2409 88.7179L80.9565 79.0947C80.9565 78.9681 80.9701 78.8605 80.9971 78.773C81.0233 78.6856 81.0838 78.619 81.1759 78.5707C81.2662 78.5224 81.4016 78.4887 81.5831 78.4678C81.7646 78.4468 82.0066 78.4368 82.309 78.4368C82.6115 78.4368 82.8535 78.4468 83.035 78.4678C83.2164 78.4887 83.3519 78.5234 83.4422 78.5707C83.5352 78.6181 83.5947 78.6856 83.6218 78.773C83.648 78.8605 83.6616 78.9672 83.6616 79.0947L83.6426 79.6406C83.8087 79.4492 83.9803 79.2752 84.1554 79.1166C84.3306 78.9571 84.5175 78.8195 84.7143 78.702C84.9139 78.5853 85.126 78.4942 85.35 78.4286C85.5757 78.363 85.8231 78.3311 86.0876 78.3311C86.4506 78.3311 86.7865 78.3967 87.0971 78.5279C87.4095 78.6582 87.6785 78.8496 87.9033 79.1011C88.1291 79.3526 88.3015 79.657 88.418 80.0169C88.5317 80.3468 88.585 80.7159 88.5787 81.1223V81.2381L88.3656 88.7179C88.3656 88.8327 88.3503 88.9211 88.3196 88.9858C88.2907 89.0523 88.2356 89.1033 88.1534 89.1389C88.0695 89.1735 87.9521 89.1972 87.8013 89.2109C87.6487 89.2236 87.4492 89.2291 87.1991 89.2291C86.949 89.2291 86.7512 89.2236 86.6005 89.2109C86.4506 89.1981 86.3341 89.1735 86.2547 89.1389C86.1743 89.1033 86.1192 89.0523 86.0885 88.9858C86.0587 88.9211 86.0452 88.8327 86.0452 88.7179L85.8411 81.5005C85.8357 81.2654 85.805 81.0704 85.7517 80.9146C85.6976 80.7587 85.6272 80.6357 85.5387 80.5473C85.4493 80.4571 85.3455 80.3951 85.2236 80.3605C85.0999 80.3222 84.9671 80.304 84.8254 80.304C84.6006 80.304 84.4028 80.3669 84.2295 80.4935C84.0588 80.6184 83.9099 80.7678 83.7844 80.9428L83.5622 88.7179C83.5622 88.8327 83.5478 88.9211 83.5189 88.9858C83.4882 89.0523 83.4313 89.1033 83.3492 89.1389C83.267 89.1735 83.1487 89.1972 82.997 89.2109C82.8472 89.2236 82.6467 89.2291 82.3975 89.2291C82.1483 89.2291 81.9479 89.2236 81.7953 89.2109C81.6454 89.1981 81.5298 89.1735 81.4504 89.1389C81.3691 89.1033 81.3159 89.0523 81.2861 88.9858C81.2554 88.9211 81.2391 88.8327 81.2391 88.7179H81.2409Z" fill="#3D3D3D"/>
</svg>
