<svg width="21" height="17" viewBox="0 0 21 17" fill="none" xmlns="http://www.w3.org/2000/svg">
<path d="M18.0282 0.5H2.01485C0.913934 0.5 0.0231919 1.4 0.0231919 2.5L0.0131836 14.5C0.0131836 15.6 0.913934 16.5 2.01485 16.5H18.0282C19.1291 16.5 20.0299 15.6 20.0299 14.5V2.5C20.0299 1.4 19.1291 0.5 18.0282 0.5ZM17.6278 4.75L10.552 9.17C10.2317 9.37 9.81134 9.37 9.49107 9.17L2.41518 4.75C2.31483 4.69371 2.22695 4.61766 2.15686 4.52645C2.08677 4.43525 2.03593 4.33078 2.00742 4.21937C1.97891 4.10796 1.97332 3.99194 1.99099 3.87831C2.00866 3.76468 2.04922 3.65581 2.11021 3.5583C2.17121 3.46079 2.25137 3.37666 2.34585 3.311C2.44033 3.24533 2.54716 3.19951 2.65988 3.1763C2.7726 3.15309 2.88886 3.15297 3.00163 3.17595C3.11439 3.19893 3.22132 3.24453 3.31593 3.31L10.0215 7.5L16.7271 3.31C16.8217 3.24453 16.9286 3.19893 17.0414 3.17595C17.1542 3.15297 17.2704 3.15309 17.3832 3.1763C17.4959 3.19951 17.6027 3.24533 17.6972 3.311C17.7917 3.37666 17.8718 3.46079 17.9328 3.5583C17.9938 3.65581 18.0344 3.76468 18.052 3.87831C18.0697 3.99194 18.0641 4.10796 18.0356 4.21937C18.0071 4.33078 17.9563 4.43525 17.8862 4.52645C17.8161 4.61766 17.7282 4.69371 17.6278 4.75Z" fill="#FF914D"/>
</svg>
