<svg width="19" height="19" viewBox="0 0 19 19" fill="none" xmlns="http://www.w3.org/2000/svg">
<path d="M1.16189 7.67426C3.26224 12.2471 6.99428 15.8714 11.6272 17.8375L12.3712 18.1689C13.195 18.5357 14.1219 18.6 14.9885 18.3505C15.855 18.101 16.6057 17.5537 17.1083 16.805L18.0808 15.3569C18.233 15.1298 18.2946 14.8539 18.2535 14.5836C18.2124 14.3134 18.0716 14.0683 17.8588 13.8967L14.5636 11.2388C14.4488 11.1463 14.3165 11.078 14.1747 11.0379C14.0329 10.9978 13.8844 10.9867 13.7382 11.0054C13.5919 11.0241 13.451 11.0722 13.3238 11.1467C13.1966 11.2212 13.0858 11.3206 12.998 11.439L11.9784 12.8139C9.36111 11.5215 7.24256 9.40308 5.9504 6.78612L7.32448 5.76673C7.4429 5.67897 7.54236 5.56819 7.61689 5.44103C7.69142 5.31388 7.73947 5.17298 7.75817 5.02679C7.77687 4.88061 7.76583 4.73215 7.7257 4.59034C7.68558 4.44853 7.6172 4.31628 7.52468 4.20155L4.86623 0.907129C4.69457 0.69434 4.44944 0.553529 4.17912 0.512433C3.90879 0.471337 3.63288 0.532936 3.40572 0.685094L1.94739 1.66292C1.19405 2.168 0.644518 2.92405 0.396682 3.79638C0.148847 4.66872 0.218805 5.60069 0.594095 6.42627L1.16189 7.67426Z" fill="#FF914D"/>
</svg>
