<svg width="630" height="900" viewBox="0 0 630 900" fill="none" xmlns="http://www.w3.org/2000/svg">
<g clip-path="url(#clip0_450_413)">
<rect width="630" height="900" fill="white"/>
<rect width="630" height="900" fill="#161616"/>
<path opacity="0.08" d="M1540.09 65.9429C1362.26 163.456 1274.81 332.255 1088.18 421.567C932.64 496.006 772.288 520.815 613.374 572.221C514.145 604.323 430.581 660.759 356.631 728.746C292.396 787.801 236.6 853.73 163.658 906.953C85.0917 964.287 -9.6183 990.419 -99.5231 1012.29C-210.746 1039.36 -322.193 1057.77 -433.478 1091.44C-535.89 1122.43 -628.238 1177.35 -721.104 1232.06C-816.427 1288.2 -910.704 1345.41 -1008.82 1397.13M1536.57 59.1975C1361.1 157.593 1270.24 326.091 1084.47 412.978C928.382 485.977 769.841 512.053 611.073 565.356C513.66 598.056 429.794 655.371 356.015 721.452C290.94 779.739 233.644 844.285 161.035 897.335C82.3237 954.846 -12.008 980.408 -102.224 1003.11C-213.545 1031.12 -325.133 1051.36 -436.44 1085.32C-539.425 1116.73 -630.199 1170.78 -723.995 1225.19C-819.829 1280.78 -914.978 1337.17 -1012.74 1389.65M1532.95 52.2748C1360.01 150.525 1264.7 316.686 1080.89 401.76C925.384 473.734 768.36 503.102 610.512 557.876C514.956 591.027 430.975 648.087 356.943 712.067C290.995 769.072 232.089 831.796 159.766 884.132C80.6484 941.382 -13.2147 967.162 -103.702 991.124C-215.161 1020.64 -326.997 1043.23 -438.324 1078.05C-541.548 1110.34 -631.773 1163.85 -726.507 1217.54C-823.235 1272.35 -919.633 1327.64 -1017.42 1380.71M1529.25 45.1837C1358.74 142.55 1258.59 304.316 1077.45 388.214C1002.16 423.091 925.068 451.776 847.437 476.931C769.158 502.301 689.355 522.002 611.491 549.817C423.243 617.073 313.004 758.965 159.726 867.75C79.993 924.339 -13.362 951.027 -104.096 976.652C-215.737 1008.19 -327.87 1033.57 -439.247 1069.78C-542.435 1103.33 -632.987 1156.58 -728.679 1209.17C-826.653 1263.03 -924.568 1316.96 -1022.74 1370.47M1525.46 37.9329C1357.22 133.854 1252.09 289.379 1074.08 372.678C999.603 407.525 923.61 437.725 846.926 464.563C769.54 491.644 690.83 513.019 613.743 541.286C430.626 608.434 313.406 743.265 160.673 848.663C80.1133 904.251 -12.7002 932.462 -103.604 960.059C-215.451 994.013 -327.919 1022.57 -439.405 1060.65C-542.331 1095.8 -633.956 1149 -730.612 1200.2C-830.112 1252.91 -929.78 1305.3 -1028.67 1359.12M1521.6 30.5314C1355.55 124.539 1245.22 272.335 1070.78 355.45C997.241 390.482 922.53 422.393 846.98 451.143C770.653 480.187 693.335 503.678 617.05 532.315C438.94 599.184 314.931 725.738 162.432 827.28C80.8436 881.611 -11.4061 911.84 -102.417 941.659C-214.517 978.397 -327.323 1010.45 -438.947 1050.75C-541.486 1087.78 -634.686 1141.06 -732.353 1190.68C-833.615 1242.12 -935.2 1292.75 -1035.11 1346.81M1517.65 22.9794C1353.82 114.658 1237.98 253.645 1067.52 336.846C920.08 408.804 772.674 464.871 621.208 522.969C447.872 589.465 317.322 706.732 164.862 804.045C82.0498 856.906 -9.57466 889.561 -100.621 921.802C-212.983 961.598 -326.15 997.393 -437.951 1040.24C-540.12 1079.39 -635.105 1132.79 -733.925 1180.72C-837.11 1230.77 -940.74 1279.49 -1041.95 1333.72M1513.64 15.2857C1352.14 104.288 1230.35 233.776 1064.26 317.181C919.4 389.935 775.798 454.677 625.969 513.319C457.088 579.417 320.31 686.602 167.754 779.397C83.5312 830.625 -7.38649 866.025 -98.4133 900.827C-211.059 943.897 -324.552 983.596 -436.583 1029.23C-538.531 1070.75 -635.178 1124.14 -735.377 1170.4C-840.613 1218.99 -946.358 1265.66 -1049.08 1320.03M1509.55 7.46721C1427.5 51.8868 1354.92 104.538 1281.2 158.831C1210.97 210.548 1139.62 256.046 1061.01 296.788C918.711 370.529 779.486 444.267 631.131 503.436C466.274 569.182 323.671 665.668 170.949 753.776C-20.0138 863.944 -234.478 931.116 -435.022 1017.86C-537.003 1061.97 -634.958 1115.15 -736.809 1159.8C-844.159 1206.86 -952.051 1251.39 -1056.47 1305.88M1505.4 -0.474669C1424.83 42.3144 1351.5 92.1077 1277.4 143.323C1206.48 192.339 1134.33 234.94 1057.7 275.963C917.877 350.816 783.482 433.64 636.433 493.368C475.044 558.927 327.202 644.217 174.246 727.607C-22.1121 834.658 -230.967 913.477 -433.385 1006.24C-535.69 1053.13 -634.418 1105.83 -738.261 1148.99C-847.744 1194.49 -957.785 1236.86 -1064.02 1291.45M1501.2 -8.53197C1422.01 32.6999 1347.99 79.6253 1273.53 127.707C1202.1 173.824 1128.98 213.785 1054.36 255.033C916.811 331.077 787.631 422.82 641.693 483.186C483.123 548.774 330.747 622.566 177.492 701.341C-23.4778 804.64 -228.633 896.204 -431.798 994.524C-534.725 1044.33 -633.667 1096.3 -739.751 1138.08C-851.331 1182.03 -963.485 1222.19 -1071.61 1276.92M1496.93 -16.6957C1418.99 23.14 1344.39 67.2336 1269.6 112.16C1197.83 155.287 1123.58 192.911 1050.91 234.318C915.316 311.584 791.724 411.826 646.631 472.97C490.206 538.881 334.075 601.017 180.476 675.414C89.9632 719.255 1.3891 767.522 -88.657 812.485C-202.543 869.356 -316.959 925.083 -430.426 982.819C-534.165 1035.6 -632.862 1086.61 -741.376 1127.14C-854.981 1169.57 -969.171 1207.55 -1079.19 1262.45M1492.62 -24.9569C1415.76 13.6732 1340.69 55.0316 1265.62 96.8909C1193.66 137.011 1118.27 172.623 1047.38 214.129C913.325 292.599 795.612 400.669 651.1 462.762C496.152 529.334 337.106 579.872 183.082 650.249C91.181 692.243 2.75708 743.838 -86.7399 790.985C-200.928 851.128 -315.449 910.633 -429.369 971.256C-482.174 999.364 -534.294 1030.01 -588.618 1054.96C-639.305 1078.22 -691.162 1097.83 -743.125 1116.25C-858.628 1157.22 -974.756 1193.07 -1086.6 1248.19M1488.25 -33.3156C1412.29 4.37369 1336.89 43.1285 1261.54 82.0726C1189.47 119.32 1113.1 153.211 1043.68 194.768C910.652 274.41 799.033 389.327 654.787 452.611C500.73 520.208 339.556 559.425 185.043 626.278C91.9716 666.548 3.43131 721.317 -85.4099 770.367C-199.872 833.575 -314.436 896.622 -428.838 959.946C-481.477 989.084 -533.619 1020.73 -588.483 1045.48C-639.859 1068.65 -692.477 1087.71 -745.149 1105.49C-862.37 1145.07 -980.323 1178.88 -1093.86 1234.31M1483.84 -41.7632C1408.57 -4.70953 1333 31.6427 1257.39 67.8975C1185.21 102.491 1108.14 135.001 1039.82 176.568C907.172 257.297 801.785 377.837 657.495 442.623C503.83 511.617 341.248 540.05 186.217 603.97C92.1756 642.738 3.3254 700.344 -84.798 751.026C-199.531 817.016 -314.067 883.32 -428.948 949.059C-481.41 979.087 -533.578 1011.49 -588.873 1036.09C-640.867 1059.22 -694.164 1077.78 -747.432 1094.97C-866.173 1133.29 -985.768 1165.19 -1100.81 1221.02M1479.39 -50.2814C1404.62 -13.5336 1329.06 20.6948 1253.16 54.5599C1180.83 86.8282 1103.44 118.3 1035.79 159.847C902.443 241.739 803.664 365.292 659.023 432.834C505.922 504.331 341.792 522.133 186.455 583.719C91.6903 621.297 2.39549 681.222 -85.011 733.245C-199.981 801.66 -314.419 870.869 -429.789 938.68C-482.055 969.406 -534.278 1002.29 -589.887 1026.8C-642.381 1049.94 -696.258 1068.08 -750.031 1084.75C-870.043 1121.97 -991.083 1152.07 -1107.37 1208.46M1474.91 -58.8616C1400.48 -22.0436 1325.06 10.3758 1248.85 42.2429C1176.24 72.6068 1099.02 103.461 1031.55 144.911C897.214 227.457 804.243 353.652 659.135 423.31C505.84 496.894 341.409 505.805 185.546 565.997C90.2845 602.785 0.492292 664.346 -86.2744 717.4C-201.45 787.817 -315.703 859.513 -431.584 928.967C-483.636 960.168 -535.954 993.189 -591.688 1017.69C-644.543 1040.92 -698.877 1058.69 -753.034 1074.93C-874.01 1111.2 -996.29 1139.71 -1113.48 1196.78M1470.39 -67.5128C1326.36 4.84487 1165.06 48.0882 1027.07 132.065C891.127 214.797 803.16 342.067 657.6 414.093C503.92 490.146 339.784 491.435 183.328 551.203C87.8197 587.68 -2.46779 650.007 -88.703 703.788C-204.038 775.71 -318.058 849.439 -434.406 920.006C-486.248 951.447 -538.687 984.203 -594.371 1008.77C-647.418 1032.18 -702.066 1049.67 -756.457 1065.56C-878.072 1101.09 -1001.32 1128.19 -1119.01 1186.16M1465.85 -76.217C1321.29 -1.79122 1162.5 38.1183 1022.33 121.658C884.387 203.865 799.844 330.769 654.174 405.301C499.97 484.199 336.697 479.409 179.573 539.84C84.1052 576.556 -6.6381 638.625 -92.4952 692.806C-207.934 765.662 -321.614 840.883 -438.426 911.952C-490.063 943.365 -542.667 975.384 -598.067 1000.11C-651.11 1023.78 -705.93 1041.11 -760.393 1056.76C-882.276 1091.78 -1006.22 1117.74 -1123.91 1176.79M1461.28 -84.966C1316.99 -10.5783 1159.17 29.1427 1018.89 112.018C879.818 194.18 796.559 322.117 650.037 397.218C494.649 476.858 330.171 471.151 171.832 532.297C76.655 569.052 -14.0887 630.862 -99.5287 685.129C-214.151 757.932 -326.782 833.383 -442.968 904.193C-548.82 968.715 -648.716 1015.46 -765.582 1049.02C-887.235 1083.97 -1010.59 1109.97 -1128.11 1168.75M1456.69 -93.7503C1313.26 -19.7462 1156.66 19.261 1017.04 101.488C876.452 184.272 794.411 314.348 646.372 390.298C488.671 471.203 321.33 464.543 160.572 526.557C65.6872 563.16 -24.7903 624.865 -109.62 679.298C-222.97 752.045 -334.087 827.677 -449.166 898.247C-554.467 962.819 -654.793 1009.48 -771.198 1042.9C-892.26 1077.65 -1014.65 1103.57 -1131.64 1161.97M1452.09 -102.561C1310.02 -29.2306 1154.89 8.58888 1016.61 90.1491C874.177 174.157 793.322 307.313 643.172 384.365C482.174 466.981 310.522 459.346 146.276 522.347C51.6974 558.632 -38.3018 620.346 -122.362 675.055C-234.03 747.725 -343.228 823.504 -456.805 893.843C-561.203 958.496 -661.479 1004.93 -777.2 1038.13C-897.36 1072.61 -1018.47 1098.36 -1134.62 1156.28M1447.47 -111.407C1307.17 -39.0059 1153.76 -2.78293 1017.36 78.135C872.788 163.894 793.09 300.948 640.31 379.305C475.146 464.006 297.95 455.397 129.31 519.497C34.9918 555.342 -54.2735 617.135 -137.452 672.207C-247.083 744.795 -354.01 820.685 -465.742 890.805C-568.936 955.563 -668.763 1001.66 -783.56 1034.56C-902.534 1068.65 -1022.12 1094.16 -1137.1 1151.52M1442.85 -120.262C1304.67 -48.9792 1153.21 -14.6874 1019.14 65.5624C872.214 153.51 793.605 295.14 637.774 374.967C467.771 462.048 283.95 452.499 110.171 517.76C16.1024 553.079 -72.2404 614.989 -154.41 670.504C-261.72 743.007 -366.081 818.99 -475.672 888.872C-577.403 953.746 -676.438 999.421 -790.165 1031.98C-907.727 1065.63 -1025.55 1090.8 -1139.16 1147.55M1438.22 -129.126C1302.38 -59.0969 1153.27 -26.9022 1021.72 52.549C872.154 142.88 794.722 289.773 635.494 371.216C460.12 460.922 268.764 450.469 89.2885 516.922C-4.59824 551.684 -91.7917 613.658 -172.91 669.73C-277.671 742.132 -379.212 818.177 -486.457 887.86C-586.502 952.857 -684.509 998.04 -797.006 1030.2C-912.973 1063.35 -1028.84 1088.15 -1140.91 1144.2M1433.59 -137.981C1300.34 -69.3464 1153.56 -39.5099 1024.91 39.2078C872.751 132.313 796.19 284.787 633.396 367.911C546.051 412.513 448.583 430.226 358.507 447.891C262.365 466.751 163.327 481.684 67.0916 516.77C-26.6848 550.967 -112.525 612.945 -192.546 669.662C-294.57 741.966 -393.117 818.049 -497.864 887.533C-596.048 952.664 -692.855 997.3 -804.019 1029.04C-918.258 1061.64 -1032.05 1086.02 -1142.42 1141.35M1428.97 -146.836C1362.72 -112.758 1297.64 -87.4879 1228.38 -64.3154C1160.59 -41.6373 1090.31 -12.6949 1028.51 25.6607C873.764 121.698 797.886 280.076 631.443 364.915C541.463 410.78 439.614 428.389 346.972 446.413C247.061 465.853 144.121 481.178 44.0324 517.103C-49.7226 550.758 -134.01 612.636 -212.936 670.09C-312.125 742.29 -407.536 818.393 -509.66 887.692C-605.862 952.961 -701.348 997.019 -811.108 1028.3C-923.531 1060.35 -1035.14 1084.27 -1143.73 1138.86M1424.35 -155.683C1359.59 -122.406 1296.43 -98.0736 1228.69 -76.1096C1162.08 -54.5091 1092.7 -26.0134 1032.32 12.0096C875.021 111.035 799.657 275.508 629.551 362.068C536.895 409.217 430.515 426.722 335.257 445.108C231.492 465.128 124.584 480.878 20.5392 517.639C-73.2787 550.786 -155.881 612.461 -233.694 670.721C-329.994 742.822 -422.174 818.931 -521.67 888.053C-615.811 953.453 -709.945 996.929 -818.262 1027.74C-928.828 1059.2 -1038.19 1082.67 -1144.96 1136.47M1419.74 -164.493C1356.45 -132.003 1295.26 -108.606 1229.02 -87.8683C1163.57 -67.3719 1095.12 -39.2611 1036.14 -1.60624C876.368 100.381 801.388 270.993 627.672 359.247C532.355 407.673 421.417 425.088 323.561 443.838C215.92 464.461 105.07 480.622 -2.93559 518.211C-96.8868 550.908 -177.708 612.24 -254.446 671.394C-347.845 743.39 -436.808 819.511 -533.662 888.449C-625.714 953.966 -718.528 996.865 -825.392 1027.22C-934.097 1058.1 -1041.23 1081.12 -1146.18 1134.14M1415.16 -173.278C1353.29 -141.554 1294.02 -119.037 1229.25 -99.5293C1164.94 -80.1567 1097.41 -52.3564 1039.77 -15.0912C877.922 89.5742 802.98 267.15 625.751 356.313C527.455 405.765 412.801 423.247 312.071 442.415C200.644 463.617 85.924 480.197 -25.9358 518.592C-120.086 550.908 -199.111 611.798 -274.777 671.87C-365.341 743.762 -451.115 819.876 -545.417 888.654C-635.39 954.269 -726.993 996.638 -832.441 1026.54C-939.347 1056.85 -1044.27 1079.42 -1147.46 1131.69M1410.59 -182.026C1350.04 -151.014 1292.64 -129.316 1229.26 -111.005C1166.04 -92.7445 1099.37 -65.1692 1043.01 -28.3013C958.845 26.756 896.856 101.888 834.646 170.58C776.132 235.187 710.046 309.785 623.709 353.115C522.888 403.717 404.14 421.126 300.973 440.642C185.933 462.399 67.5167 479.375 -48.0505 518.533C-142.426 550.515 -219.704 610.899 -294.335 671.886C-382.194 743.685 -464.858 819.799 -556.746 888.411C-644.729 954.115 -735.274 995.988 -839.376 1025.46C-944.567 1055.24 -1047.38 1077.37 -1148.89 1128.91M1406.04 -190.731C1346.7 -160.349 1291.05 -139.383 1228.94 -122.232C1166.72 -105.05 1100.85 -77.5982 1045.68 -41.1551C960.169 15.3135 897.539 92.551 834.696 162.781C775.999 228.364 709.099 305.643 621.526 349.517C518.405 401.184 395.886 418.521 290.469 438.354C172.051 460.634 50.184 477.958 -68.814 517.858C-163.413 549.573 -239.102 609.409 -312.716 671.276C-398.039 742.98 -477.773 819.109 -567.43 887.56C-653.558 953.322 -743.289 994.781 -846.134 1023.84C-949.743 1053.12 -1050.59 1074.89 -1150.57 1125.74M1401.53 -199.373C1343.22 -169.541 1289.19 -149.253 1228.17 -133.113C1166.87 -116.904 1101.72 -89.5495 1047.54 -53.51C960.81 4.18213 897.603 83.3566 834.191 154.956C775.332 221.424 707.759 301.006 619.065 345.387C513.938 398 388.098 415.255 280.698 435.369C159.26 458.109 34.2443 475.745 -87.8329 516.317C-182.597 547.814 -256.946 607.109 -329.573 669.768C-412.592 741.386 -489.591 817.542 -577.272 885.83C-661.733 951.613 -750.947 992.767 -852.651 1021.46C-954.857 1050.29 -1053.91 1071.75 -1152.54 1121.96M1397.04 -207.962C1339.52 -178.531 1286.96 -158.887 1226.84 -143.587C1166.28 -128.169 1101.83 -100.94 1048.43 -65.2671C960.617 -6.60411 896.911 74.3318 833.078 147.065C774.054 214.319 706.036 295.701 616.372 340.555C509.576 393.983 380.987 411.151 271.947 431.489C147.894 454.625 20.1569 472.487 -104.585 513.683C-199.423 545.005 -272.754 603.823 -344.43 667.137C-425.427 738.68 -500.004 814.88 -585.995 883.007C-669.036 948.792 -758.087 989.739 -858.823 1018.12C-959.857 1046.57 -1057.35 1067.78 -1154.87 1117.44M1392.59 -216.481C1335.72 -187.373 1284.26 -168.07 1224.84 -153.565C1164.95 -138.951 1100.86 -111.559 1048.11 -76.2839C959.379 -16.9344 895.312 65.51 831.164 139.129C771.969 207.059 703.763 289.634 613.294 334.92C505.236 389.007 374.59 406.053 264.316 426.551C138.164 450.004 8.1563 468.014 -118.711 509.768C-213.485 540.954 -286.215 599.402 -357.02 663.186C-436.352 734.65 -508.818 810.943 -593.495 878.903C-675.446 944.672 -764.731 985.526 -864.69 1013.64C-964.826 1041.81 -1061.05 1062.85 -1157.71 1112.04M1388.19 -224.919C1331.71 -195.986 1281.04 -176.857 1222.04 -162.967C1162.65 -148.995 1098.71 -121.344 1046.43 -86.4701C956.965 -26.7975 892.644 56.9076 828.341 131.104C768.996 199.587 700.906 282.643 609.805 328.303C500.974 382.851 369.074 399.762 258.024 420.36C130.367 444.035 -1.34252 462.088 -129.738 504.313C-224.272 535.408 -296.886 593.626 -366.891 657.647C-444.969 729.053 -515.736 805.463 -599.495 873.237C-680.728 938.958 -770.727 979.869 -870.14 1007.8C-969.681 1035.78 -1064.97 1056.76 -1161.09 1105.56M1383.83 -233.269C1327.46 -204.349 1277.22 -185.207 1218.35 -171.722C1159.24 -158.18 1095.25 -130.198 1043.15 -95.6902C953.181 -36.114 888.735 48.5815 824.481 123.001C764.991 191.919 697.36 274.623 605.853 320.608C496.813 375.401 364.566 392.166 253.266 412.77C124.789 436.558 -7.99396 454.528 -137.226 497.156C-334.001 562.062 -455.593 745.657 -603.802 865.863C-684.763 931.521 -775.984 972.618 -875.108 1000.46C-974.409 1028.35 -1069.15 1049.37 -1165.09 1097.92M1379.51 -241.539C1322.93 -212.85 1271.17 -193.512 1212.12 -178.558C1152.53 -163.478 1088.53 -136.695 1036 -101.555C946.733 -41.828 882.405 41.5084 818.038 115.614C758.769 183.854 690.429 267.176 599.547 312.643C490.812 367.05 358.718 384.074 247.743 404.847C120.018 428.75 -11.6364 447.101 -140.073 489.246C-336.423 553.67 -459.792 737.099 -607.987 857.106C-689.272 922.922 -779.713 963.86 -879.159 991.924C-978.471 1019.95 -1073.44 1041.19 -1169.41 1089.65M1375.25 -249.694C1317.69 -220.718 1263.32 -200.265 1203.26 -183.27C1142.68 -166.129 1077.67 -139.823 1024.15 -103.878C935.88 -44.5876 871.802 37.0275 807.564 110.344C748.481 177.776 679.898 260.503 589.9 305.429C481.973 359.313 351.061 376.723 240.834 397.67C114.528 421.667 -15.4088 440.395 -142.353 482.099C-237.092 513.222 -309.735 571.027 -380.196 635.082C-457.851 705.681 -528.33 781.219 -611.545 848.223C-693.223 913.997 -783.179 954.862 -882.878 983.217C-982.316 1011.49 -1077.61 1033.05 -1173.69 1081.51M1371.04 -257.751C1311.66 -227.959 1253.97 -205.773 1192.09 -186.122C1130.02 -166.408 1063.27 -140.045 1008.19 -103.098C921.144 -44.7212 857.471 34.8214 793.541 106.917C734.601 173.393 666.181 254.523 577.294 298.858C470.597 352.088 341.762 369.982 232.692 391.137C108.384 415.241 -19.3174 434.303 -144.124 475.601C-238.58 506.846 -311.349 564.379 -382.203 627.974C-460.163 697.954 -531.245 772.757 -614.524 839.22C-696.671 904.775 -786.411 945.663 -886.262 974.345C-985.907 1002.97 -1081.63 1024.93 -1177.89 1073.45M1366.89 -265.693C1304.9 -234.56 1243.36 -210.079 1178.95 -187.338C1115 -164.757 1045.89 -137.737 988.699 -99.6208C903.077 -42.5623 839.945 34.5877 776.5 105.121C717.67 170.514 649.768 249.174 562.196 292.889C457.12 345.34 331.115 363.832 223.523 385.196C101.715 409.394 -23.3092 428.795 -145.465 469.701C-239.332 501.136 -312.371 558.313 -383.528 621.197C-461.864 690.426 -533.627 764.378 -617.03 830.15C-699.689 895.34 -789.445 936.327 -889.388 965.35C-989.312 994.375 -1085.54 1016.85 -1182.05 1065.5M1362.81 -273.511C1297.49 -240.58 1231.76 -213.305 1164.2 -187.172C1097.99 -161.563 1026.09 -133.297 966.306 -93.8713C882.307 -38.4613 819.801 36.0376 756.966 104.696C698.225 168.869 631.096 244.383 545.018 287.431C441.874 339.02 319.334 358.162 213.511 379.776C94.6212 404.062 -27.3361 423.802 -146.412 464.329C-239.43 495.998 -312.87 552.764 -384.245 614.713C-462.999 683.076 -535.508 756.087 -619.082 821.045C-702.321 885.738 -792.267 926.88 -892.224 956.295C-992.506 985.8 -1089.31 1008.84 -1186.12 1057.67M1358.8 -281.197C1289.55 -246.07 1219.4 -215.607 1148.16 -185.857C1079.35 -157.116 1004.41 -127.128 941.601 -86.2716C859.359 -32.7718 797.574 38.8689 735.455 105.404C676.801 168.223 610.646 240.07 526.199 282.424C425.258 333.055 306.644 352.921 202.837 374.802C87.1922 399.187 -31.3909 419.241 -147.047 459.426C-337.721 525.659 -469.75 696.518 -620.793 811.977C-704.633 876.07 -794.937 917.433 -894.874 947.243C-995.557 977.274 -1092.98 1000.93 -1190.14 1049.99M1354.86 -288.74C1281.23 -251.09 1206.51 -217.174 1131.2 -183.654C1059.44 -151.709 981.484 -119.646 915.194 -77.241C757.597 23.5669 677.783 191.424 506.194 277.8C407.642 327.408 293.332 348.039 191.71 370.223C79.5604 394.7 -35.429 415.1 -147.379 454.907C-336.552 522.171 -470.158 688.846 -622.177 802.953C-706.66 866.366 -797.401 907.991 -897.29 938.216C-998.418 968.818 -1096.51 993.13 -1194.05 1042.45M1350.99 -296.141C1272.67 -255.744 1193.28 -218.173 1113.62 -180.79C1038.67 -145.618 957.774 -111.211 887.644 -67.1962C732.91 29.9053 652.217 188.542 485.369 273.48C389.664 322.199 279.284 343.496 180.262 365.935C71.751 390.521 -39.4618 411.26 -147.541 450.682C-335.214 519.137 -470.291 681.311 -623.386 794.006C-708.525 856.679 -799.789 898.599 -899.62 929.257C-1001.22 960.452 -1099.99 985.444 -1197.94 1035.07M1347.2 -303.392C1264 -260.109 1179.94 -218.791 1095.79 -177.526C1017.48 -139.135 933.818 -102.209 859.581 -56.5791C708.169 36.4975 626.157 186.719 464.217 269.375C371.019 316.943 265.416 339.073 168.724 361.864C63.9545 386.56 -43.4278 407.646 -147.556 446.673C-333.739 516.46 -470.194 673.894 -624.423 785.161C-710.22 847.061 -802.035 889.315 -901.806 920.381C-1003.88 952.176 -1103.35 977.862 -1201.72 1027.79M1343.5 -310.483C1255.4 -264.257 1166.72 -219.172 1078.03 -174.105C996.308 -132.577 910.046 -92.9867 831.602 -45.8027C683.654 43.1973 600.047 185.125 443.135 265.437C352.489 311.841 251.566 334.811 157.261 357.968C56.2061 382.788 -47.3054 404.233 -147.492 442.849C-332.211 514.049 -470.018 666.661 -625.381 776.501C-711.84 837.618 -804.19 880.207 -903.908 911.697C-1006.48 944.101 -1106.62 970.467 -1205.42 1020.7M1339.89 -317.397C1246.95 -268.271 1153.83 -219.516 1060.7 -170.753C975.664 -126.229 886.832 -83.9882 804.293 -35.2632C660.045 49.8864 574.408 183.657 422.564 261.605C240.379 355.127 39.4071 365.084 -147.395 439.12C-330.711 511.776 -469.821 659.597 -626.317 768.043C-713.437 828.412 -806.269 871.309 -905.966 903.228C-1009.01 936.216 -1109.83 963.271 -1209.04 1013.8M1336.37 -324.142C1238.82 -272.26 1141.49 -219.985 1044.13 -167.73C955.908 -120.38 864.83 -75.453 778.267 -25.4053C637.573 55.9367 549.913 182.145 402.936 257.799C226.461 348.633 33.3399 361.878 -147.338 435.413C-329.323 509.483 -469.75 652.712 -627.316 759.822C-715.074 819.485 -808.307 862.683 -908.015 895.001C-1011.51 928.552 -1112.95 956.25 -1212.58 1007.06M1332.95 -330.693C1231.11 -276.269 1129.91 -220.731 1028.67 -165.274C937.572 -115.372 844.342 -67.9004 754.129 -16.657C616.91 61.2789 527.071 180.468 384.705 253.917C213.602 342.194 27.5545 358.695 -147.34 431.623C-328.104 506.997 -469.868 645.982 -628.4 751.859C-716.756 810.864 -810.291 854.355 -910.032 887.063C-1013.93 921.13 -1115.97 949.442 -1215.97 1000.51M1329.62 -337.057C1129.79 -229.963 930.145 -120.146 732.447 -9.41738C665.733 27.9399 610.117 75.3185 553.841 122.793C496.171 171.448 437.551 214.111 368.254 249.918C202.032 335.827 22.1439 355.485 -147.523 427.714C-327.186 504.193 -470.367 639.462 -629.687 744.217C-718.616 802.675 -812.299 846.401 -912.109 879.462C-1016.37 914 -1118.93 942.857 -1219.28 994.137M1326.4 -343.227C1120.86 -233.017 917.675 -117.267 713.847 -4.13715C648.715 32.0105 593.523 77.1596 537.696 122.776C480.249 169.723 421.839 210.652 354.047 245.718C192.057 329.507 17.2675 352.165 -147.933 423.596C-326.679 500.893 -471.296 633.122 -631.268 736.919C-720.696 794.939 -814.398 838.855 -914.305 872.249C-1018.87 907.197 -1121.88 936.534 -1222.52 987.966M1323.29 -349.183C1113.31 -236.825 907.191 -116.507 698.903 -1.20651C635.137 34.0929 580.197 77.4291 524.703 121.483C467.457 166.938 409.037 206.846 342.48 241.267C183.888 323.281 13.0172 348.654 -148.616 419.214C-326.662 496.947 -472.748 626.976 -633.155 730.007C-723.021 787.737 -816.542 831.773 -916.6 865.46C-1021.39 900.736 -1124.77 930.484 -1225.64 982M1320.29 -354.927C1206.87 -294.567 1095.93 -229.958 984.658 -166.046C886.524 -109.685 787.12 -56.078 688.247 -1.06741C561.516 69.4506 464.101 169.311 334.043 236.468C177.874 317.103 9.55698 344.843 -149.619 414.481C-327.227 492.177 -474.832 621.013 -635.422 723.531C-725.643 781.131 -818.766 825.218 -919.029 859.158C-1023.96 894.678 -1127.6 924.733 -1228.63 976.265M1317.41 -360.44C1203.04 -300.133 1091.63 -234.629 979.821 -170.098C881.436 -113.311 781.345 -59.8875 682.446 -4.11863C557.068 66.5955 458.184 164.809 329.114 231.269C174.282 311.003 6.95208 340.664 -151.021 409.336C-328.47 486.463 -477.631 615.233 -638.172 717.522C-728.652 775.177 -821.149 819.231 -921.645 853.372C-1026.61 889.023 -1130.41 919.285 -1231.52 970.743M1314.65 -365.732C1101.82 -250.804 892.309 -129.279 680.946 -11.8757C554.032 58.6141 456.792 158.812 326.519 225.911C170.864 306.075 3.52048 333.769 -155.03 403.115C-333.295 481.075 -479.526 609.792 -640.507 712.694C-730.52 770.241 -823.916 815.712 -924.32 848.282C-1030.07 882.584 -1134.08 910.074 -1235.24 963.766M1312.01 -370.785C1101.48 -255.466 891.498 -138.952 681.4 -22.977C617.344 12.3832 562.366 56.0331 506.8 100.339C449.483 146.045 391.092 186.073 324.249 220.497C167.377 301.274 -0.768541 326.172 -160.465 395.879C-339.561 474.059 -482.368 604.157 -643.04 708.038C-732.785 766.065 -826.698 812.1 -927.532 842.424C-1034.36 874.56 -1138.87 898.34 -1240.75 953.779M1309.5 -375.589C1101.78 -261.148 891.045 -151.757 683.589 -36.936C617.934 -0.593884 562.596 45.1837 506.613 91.2764C449.036 138.686 390.609 179.94 322.306 215.093C163.861 296.646 -5.75914 318.072 -167.041 387.817C-347.037 465.666 -485.971 598.39 -645.668 703.555C-735.398 762.647 -829.437 808.409 -931.144 835.928C-1039.22 865.17 -1144.52 884.472 -1247.74 941.206M1307.12 -380.136C1102.54 -267.573 891.053 -167.24 687.288 -53.3085C619.782 -15.5599 563.881 32.8253 507.324 81.0561C449.434 130.423 390.723 173.687 320.657 209.738C160.318 292.224 -11.3157 309.568 -174.616 379.104C-355.609 456.176 -490.241 592.576 -648.405 699.287C-738.4 760.006 -832.194 804.715 -935.114 828.942C-1044.46 854.684 -1150.86 868.816 -1256.01 926.487M1304.88 -384.426C1103.73 -274.53 891.522 -184.847 692.261 -71.6432C552.964 7.49067 464.022 130.047 319.27 204.46C156.788 287.987 -17.3504 300.795 -182.992 369.861C-365.086 445.794 -495.1 586.766 -651.204 695.221C-741.749 758.123 -834.964 801.029 -939.359 821.558C-1049.88 843.292 -1157.75 851.712 -1265.33 909.974M1302.78 -388.45C1105.32 -281.87 892.431 -204.038 698.295 -91.503C554.886 -8.37089 468.226 122.211 318.131 199.302C153.328 283.95 -23.7809 291.879 -191.977 360.26C-375.236 434.77 -500.457 581.102 -654.013 691.363C-745.362 756.963 -837.782 797.412 -943.8 813.927C-1055.36 831.308 -1165.01 833.538 -1275.47 892.109M1300.83 -392.191C1107.32 -289.417 893.678 -224.297 705.177 -112.426C557.592 -24.8338 472.984 114.401 317.249 194.313C150.01 280.121 -30.4664 282.961 -201.345 350.475C-385.823 423.365 -506.141 575.655 -656.737 687.765C-749.069 756.497 -840.642 793.942 -948.275 806.201C-1060.67 819.008 -1172.45 814.702 -1286.11 873.295M1299.02 -395.657C1199.26 -343.67 1095.4 -303.249 991.902 -261.82C897.29 -223.95 795.926 -185.452 708.297 -131.203C558.642 -38.5477 475.941 108.48 315.059 190.347C146.01 276.377 -36.9679 274.071 -209.705 340.13C-397.725 412.027 -512.854 572.346 -662.667 686.925C-704.417 718.86 -750.869 749.686 -801.012 768.721C-852.606 788.311 -904.607 795.117 -954.806 798.646C-1067.15 806.541 -1180.72 795.875 -1297.12 853.965M1297.37 -398.821C1199.49 -348.889 1097.56 -312.929 995.814 -275.844C902.743 -241.915 801.316 -206.87 716.1 -152.788C562.649 -55.3971 481.122 101.318 314.526 185.864C142.958 272.928 -43.9121 265.66 -219.348 330.466C-408.673 400.416 -518.885 567.689 -665.179 683.927C-706.211 716.526 -752.103 748.165 -802.731 766.11C-855.782 784.915 -908.735 789.544 -959.31 791.025C-1072.1 794.346 -1188.28 776.741 -1308.21 834.5M1295.87 -401.693C1199.7 -353.693 1099.82 -322.263 999.883 -289.567C908.348 -259.621 807.143 -228.065 724.088 -174.085C567.054 -72.0365 486.315 94.5667 314.163 181.676C229.829 224.344 135.158 241.104 48.4706 257.394C-43.0699 274.584 -136.977 288.406 -228.833 321.103C-419.407 388.953 -524.973 563.569 -667.533 681.231C-707.869 714.515 -753.135 746.932 -804.287 763.809C-858.827 781.801 -912.7 784.215 -963.651 783.715C-1076.72 782.614 -1195.66 757.995 -1319.14 815.345M1294.53 -404.255C1199.86 -358.008 1102.11 -331.066 1003.99 -302.734C913.897 -276.722 813.281 -248.634 731.999 -194.654C571.643 -88.1627 491.351 88.2925 313.91 177.826C228.604 220.866 131.426 236.092 44.1721 251.234C-48.8128 267.373 -144.312 279.895 -237.984 312.187C-429.969 378.37 -530.636 559.747 -669.708 678.847C-709.366 712.814 -754.015 745.959 -805.686 761.81C-861.711 778.998 -916.477 779.215 -967.771 776.83C-1081 771.571 -1202.74 739.942 -1329.7 796.875M1293.36 -406.497C1199.92 -361.725 1104.35 -339.148 1008 -315.074C919.213 -292.879 819.568 -268.14 739.651 -214.038C654.924 -156.691 591.978 -80.6081 527.952 -10.5725C468.486 54.4757 400.933 130.505 313.815 174.345C227.569 217.751 128.009 231.491 40.2311 245.565C-54.1258 260.694 -151.158 271.963 -246.584 303.873C-440.048 368.584 -535.862 556.373 -671.617 676.776C-710.625 711.374 -754.717 745.198 -806.861 760.111C-864.324 776.549 -919.916 774.637 -971.523 770.486C-1084.79 761.376 -1209.37 722.882 -1339.59 779.489M1292.35 -408.421C1199.87 -364.783 1106.43 -346.352 1011.78 -326.31C924.137 -307.747 825.775 -286.116 746.787 -231.788C660.003 -172.103 596.134 -92.7406 531.136 -20.2002C471.518 46.3374 402.769 126.613 313.764 171.303C226.617 215.056 124.924 227.428 36.6367 240.526C-59.0062 254.714 -157.458 264.784 -254.508 296.369C-449.508 359.852 -540.538 553.501 -673.292 675.089C-711.673 710.24 -755.321 744.689 -807.872 758.789C-866.675 774.573 -923.031 770.646 -974.918 764.892C-1088.08 752.33 -1215.47 707.184 -1348.67 763.687M1291.52 -410.016C1199.72 -367.116 1108.32 -352.505 1015.2 -336.181C928.51 -320.986 831.662 -302.085 753.184 -247.46C664.516 -185.753 599.849 -103.356 533.994 -28.5746C474.204 39.3162 404.5 123.261 313.802 168.722C225.813 212.836 122.301 223.958 33.5685 236.172C-63.2026 249.493 -162.979 258.45 -261.49 289.794C-458.106 352.35 -544.429 551.099 -674.621 673.741C-712.413 709.34 -755.796 744.328 -808.637 757.778C-868.632 773.057 -925.697 767.288 -977.793 760.098C-1090.67 744.514 -1220.89 693.057 -1356.62 749.764M1290.86 -411.275C1197.13 -367.546 1105.71 -357.077 1011.63 -343.491C928.8 -331.527 837.435 -314.779 761.626 -262.71C668.531 -198.771 601.617 -110.552 533.702 -32.3367C475.671 34.489 407.598 117.773 319.502 163.849C229.734 210.799 121.308 220.99 30.8327 232.648C-66.4843 245.183 -166.607 253.057 -265.948 283.943C-463.439 345.342 -545.924 545.292 -671.95 669.312C-707.8 704.585 -751.731 741.63 -803.423 755.822C-863.112 772.205 -921.088 765.502 -972.209 757.622C-1039.58 747.238 -1102.77 730.277 -1170.8 720.951C-1231.08 712.695 -1294.53 709.584 -1363.26 738.225M1290.39 -412.179C1196.77 -368.195 1107.1 -360.759 1014.05 -350.023C931.736 -340.529 841.886 -325.182 765.93 -272.912C671.363 -207.842 603.91 -117.097 535.512 -37.4113C477.263 30.4533 408.921 115.582 319.595 162.312C229.114 209.645 119.904 218.982 28.9795 230.006C-69.1 241.89 -170.195 248.872 -270.546 279.733C-469.835 341.022 -547.896 543.749 -672.582 668.717C-707.951 704.167 -752.015 741.507 -803.705 755.574C-864.126 772.012 -922.658 763.919 -973.748 755.097C-1042 743.313 -1105.81 724.789 -1174.76 714.092C-1234.88 704.765 -1298.87 700.165 -1368.29 729.426M1290.1 -412.738C1196.37 -367.929 1108.14 -362.838 1015.69 -354.354C933.524 -346.811 845.263 -332.078 768.813 -279.686C673.063 -214.066 605.233 -121.195 536.63 -40.5448C478.147 28.1979 409.984 114.09 319.653 161.356C228.509 209.036 119.28 217.819 27.8552 228.371C-70.7428 239.747 -172.611 245.96 -273.688 276.952C-474.851 338.633 -548.625 542.675 -672.768 668.554C-707.787 704.059 -752.194 741.454 -803.739 755.671C-864.631 772.468 -923.635 763.278 -974.571 753.779C-1043.51 740.924 -1107.77 721.131 -1177.46 709.4C-1237.36 699.311 -1301.77 693.57 -1371.51 723.784M1290 -412.933C1195.97 -366.684 1108.81 -363.151 1016.44 -356.189C933.985 -349.973 847.35 -334.94 770.083 -282.56C673.5 -217.081 605.464 -122.5 536.952 -41.4803C478.241 27.9572 410.73 113.385 319.683 161.025C227.919 209.039 119.562 217.581 27.5596 227.837C-71.2773 238.852 -173.707 244.445 -275.18 275.746C-478.294 338.412 -547.895 542.034 -672.472 668.829C-707.292 704.263 -752.311 741.425 -803.534 756.128C-864.56 773.638 -923.976 763.693 -974.611 753.8C-1044.04 740.24 -1108.57 719.53 -1178.77 707.126C-1238.37 696.601 -1303.08 690.133 -1372.71 721.714" stroke="#FF914D" stroke-miterlimit="10"/>
</g>
<defs>
<clipPath id="clip0_450_413">
<rect width="630" height="900" fill="white"/>
</clipPath>
</defs>
</svg>
