<svg width="104" height="104" viewBox="0 0 104 104" fill="none" xmlns="http://www.w3.org/2000/svg">
<path d="M57.3884 46.8392L84.3292 19.9014M53.0944 65.696L22.8991 95.8879C22.2235 96.5647 21.421 97.1017 20.5375 97.4681C19.6541 97.8345 18.7071 98.023 17.7507 98.023C16.7943 98.023 15.8473 97.8345 14.9638 97.4681C14.0804 97.1017 13.2779 96.5647 12.6023 95.8879L8.33485 91.6209C7.65793 90.9454 7.12089 90.143 6.75447 89.2596C6.38806 88.3763 6.19945 87.4294 6.19945 86.4731C6.19945 85.5168 6.38806 84.5699 6.75447 83.6866C7.12089 82.8033 7.65793 82.0008 8.33485 81.3253L38.5302 51.1334M89.7174 25.2889L78.9411 14.5138L92.4115 6.43247L97.7997 11.82L89.7174 25.2889ZM9.02948 35.9294C6.44257 33.3451 4.6629 30.0645 3.90715 26.487C3.15139 22.9095 3.45216 19.1895 4.77282 15.7799L12.4348 23.441H23.2112V12.6659L15.5492 5.00476C18.9594 3.68126 22.681 3.37805 26.2606 4.13207C29.8401 4.88609 33.1231 6.66479 35.7095 9.25146C38.2959 11.8381 40.0741 15.1211 40.8274 18.7004C41.5807 22.2797 41.2766 26.0009 39.9522 29.4104L74.8137 64.2734C78.2237 62.9491 81.9452 62.6451 85.5249 63.3983C89.1046 64.1515 92.388 65.9295 94.975 68.5156C97.5619 71.1017 99.3408 74.3843 100.095 77.9635C100.849 81.5426 100.546 85.2638 99.2221 88.6737L91.5655 81.0125H80.7892V91.7877L88.4512 99.4488C85.0418 100.772 81.3211 101.076 77.7422 100.323C74.1632 99.5697 70.8805 97.7923 68.2939 95.207C65.7072 92.6218 63.9281 89.3403 63.1733 85.7621C62.4186 82.1839 62.7206 78.4635 64.0427 75.0539L29.1705 40.1856C25.7619 41.5038 22.0436 41.8033 18.4679 41.0477C14.8922 40.2921 11.6132 38.5139 9.02948 35.9294Z" stroke="url(#paint0_linear_242_97)" stroke-width="6" stroke-linecap="round" stroke-linejoin="round"/>
<defs>
<linearGradient id="paint0_linear_242_97" x1="52" y1="3.72705" x2="52" y2="100.727" gradientUnits="userSpaceOnUse">
<stop stop-color="#FF914D"/>
<stop offset="1" stop-color="#99572E"/>
</linearGradient>
</defs>
</svg>
