<svg width="2860" height="707" viewBox="0 0 2860 707" fill="none" xmlns="http://www.w3.org/2000/svg">
<g opacity="0.47" clip-path="url(#clip0_594_34)">
<path d="M2856.76 516.834C2637.22 522.852 2444.65 472.568 2222.93 482.927C2045.13 491.237 1866.48 510.948 1722.54 561.486C1582.9 610.519 1416.9 645.839 1240.88 658.73C1143.18 665.884 1059.52 659.679 970.394 645.961C867.591 630.128 770.109 608.468 662.947 597.011C561.723 586.189 456.78 594.853 352.659 603.038C244.994 611.506 138.063 621.019 29.582 625.494" stroke="#FF914D" stroke-miterlimit="10"/>
<path d="M2856.58 512.18C2637.94 517.6 2445.13 467.166 2224.43 478.846C2048.02 488.18 1867.57 506.398 1723.26 556.204C1582.16 604.9 1413.8 638.339 1238.03 652.157C1028.14 668.658 854.884 613.368 664.236 593.341C561.51 582.553 458.728 590.674 353.112 598.715C245.246 606.921 137.946 616.055 29.4028 620.834" stroke="#FF914D" stroke-miterlimit="10"/>
<path d="M2856.4 507.403C2639.57 512.448 2447.18 462.775 2228.37 475.087C2052.69 484.975 1871.49 501.267 1725.26 549.763C1580.76 597.689 1409.3 628.81 1232.65 643.06C1028.75 659.508 852.729 607.957 665.741 589.504C562.092 579.278 460.547 586.966 354.209 594.655C245.916 602.479 138.021 611.091 29.1898 616.058" stroke="#FF914D" stroke-miterlimit="10"/>
<path d="M2856.21 502.51C2641.83 507.369 2450.73 459.264 2234.47 471.606C2059.49 481.589 1877.04 495.468 1728.46 542.296C1579.64 589.2 1403.18 617.53 1225.11 631.742C1027.3 647.528 851.31 601.721 667.489 585.505C563.438 576.323 462.307 583.646 355.934 590.809C247.002 598.144 138.331 606.112 29.0168 611.177" stroke="#FF914D" stroke-miterlimit="10"/>
<path d="M2856.02 497.507C2644.6 502.332 2455.65 456.465 2242.43 468.342C2067.77 478.068 1884.34 489.173 1732.65 533.933C1578.36 579.462 1395.97 604.712 1215.7 618.501C1024.27 633.141 850.155 594.685 669.408 581.333C565.341 573.647 464.062 580.596 358.166 587.11C248.416 593.863 138.831 601.089 28.8392 606.168" stroke="#FF914D" stroke-miterlimit="10"/>
<path d="M2855.82 492.401C2647.86 497.319 2461.62 454.245 2251.91 465.252C2077.22 474.422 1893.02 482.494 1737.65 524.823C1576.87 568.629 1388 590.6 1204.71 603.659C1020.16 616.81 848.765 586.911 671.484 577.028C567.667 571.242 465.9 577.763 360.816 583.547C250.112 589.639 139.478 596.048 28.6426 601.055" stroke="#FF914D" stroke-miterlimit="10"/>
<path d="M2855.62 487.19C2651.58 492.3 2468.35 452.431 2262.62 462.28C2087.48 470.664 1902.78 475.516 1743.32 515.087C1575.16 556.818 1379.59 575.409 1192.47 587.512C1015.33 598.969 846.7 578.476 673.658 572.595C570.238 569.079 467.934 575.063 363.794 580.07C252.015 585.444 140.27 590.958 28.4426 595.85" stroke="#FF914D" stroke-miterlimit="10"/>
<path d="M2855.42 481.881C2751.31 484.676 2653.35 475.756 2553.95 467.259C2460.92 459.307 2371.12 455.292 2274.23 459.383C2098.29 466.813 1913.25 468.326 1749.46 504.873C1573.2 544.202 1370.96 559.392 1179.28 570.373C1009.82 580.078 843.819 569.51 675.902 568.038C572.891 567.133 470.281 572.419 367.01 576.633C254.08 581.243 141.149 585.816 28.2386 590.541" stroke="#FF914D" stroke-miterlimit="10"/>
<path d="M2855.21 476.487C2753.72 479.42 2658.14 471.315 2560.97 463.418C2469.3 455.971 2381.5 453.086 2286.46 456.5C2109.38 462.859 1924.16 460.992 1755.94 494.303C1571.07 530.913 1362.43 542.79 1165.47 552.541C1003.08 560.577 840.525 560.161 678.214 563.373C462.031 567.652 244.24 576.549 28.0161 585.141" stroke="#FF914D" stroke-miterlimit="10"/>
<path d="M2855 471.007C2756.21 474.087 2663.04 466.808 2568.15 459.534C2477.97 452.624 2392.04 450.868 2298.99 453.593C2120.46 458.825 1935.17 453.592 1762.59 483.531C1568.83 517.144 1354.18 525.872 1151.37 534.341C994.065 540.907 837.679 550.556 680.569 558.628C463.072 569.798 245.389 571.513 27.8056 579.668" stroke="#FF914D" stroke-miterlimit="10"/>
<path d="M2854.79 465.447C2758.66 468.664 2667.98 462.166 2575.33 455.571C2486.71 449.263 2402.51 448.536 2311.51 450.607C2131.27 454.71 1946.01 446.169 1769.22 472.68C1566.55 503.077 1346.31 508.871 1137.26 516.067C1056.66 518.84 978.064 523.245 898.494 531.369C826.562 538.709 755.309 547.609 682.919 553.797C467.045 572.261 244.605 566.46 27.592 574.108" stroke="#FF914D" stroke-miterlimit="10"/>
<path d="M2854.57 459.814C2761.09 463.15 2672.73 457.457 2582.32 451.493C2495.35 445.752 2412.58 446.005 2323.7 447.486C2141.55 450.517 1956.37 438.788 1775.68 461.89C1564.31 488.916 1338.97 492.058 1123.47 498.026C1042.49 500.268 967.089 505.494 889.017 517.314C820.901 527.625 754.65 540.456 685.238 548.899C585.046 561.086 482.371 561.253 380.726 562.489C262.955 563.923 145.346 564.56 27.3905 568.475" stroke="#FF914D" stroke-miterlimit="10"/>
<path d="M2854.35 454.115C2763.39 457.531 2677.22 452.617 2588.96 447.269C2503.61 442.096 2422.11 443.208 2335.29 444.186C2151.12 446.26 1966.03 431.496 1781.82 451.297C1562.25 474.896 1332.25 475.675 1110.34 480.529C1028.39 482.325 956.227 488.02 879.981 503.58C815.454 516.749 754.567 533.305 687.496 543.949C589.175 559.556 485.036 558.064 383.941 558.654C265.05 559.341 146.387 559.032 27.1862 562.774" stroke="#FF914D" stroke-miterlimit="10"/>
<path d="M2854.13 448.347C2765.52 451.814 2681.32 447.627 2595.06 442.863C2511.26 438.237 2430.82 440.055 2345.92 440.648C2159.67 441.944 1974.75 424.356 1787.43 441.024C1560.4 461.234 1326.17 459.953 1098.12 463.873C1014.9 465.307 945.48 471.21 871.539 490.362C810.33 506.214 754.957 526.179 689.634 538.955C593.764 557.707 487.13 554.615 386.868 554.609C266.947 554.6 147.335 553.397 26.9498 557.007" stroke="#FF914D" stroke-miterlimit="10"/>
<path d="M2853.91 442.519C2767.39 445.979 2684.91 442.466 2600.44 438.24C2518.07 434.123 2438.51 436.483 2355.31 436.826C2167.16 437.59 1982.22 417.27 1792.39 431.224C1558.99 448.383 1320.77 445.154 1087.19 448.38C1045.51 448.953 1004.9 448.762 964.178 454.688C928.044 459.942 894.841 468.164 863.966 477.871C805.771 496.167 755.764 519.165 691.682 533.933C598.6 555.378 488.681 550.837 389.49 550.313C268.646 549.678 148.22 547.63 26.7405 551.178" stroke="#FF914D" stroke-miterlimit="10"/>
<path d="M2853.68 436.647C2768.94 440.051 2687.89 437.121 2604.91 433.389C2523.74 429.734 2444.93 432.445 2363.11 432.68C2173.06 433.222 1988.42 410.624 1796.46 422.033C1557.63 436.222 1316.29 431.514 1077.79 434.36C1036.18 434.857 995.075 434.434 954.604 440.797C918.575 446.463 886.513 455.603 857.387 466.308C801.825 486.739 756.815 512.375 693.509 528.902C603.28 552.466 489.51 546.702 391.614 545.742C270.012 544.554 148.893 541.749 26.4851 545.308" stroke="#FF914D" stroke-miterlimit="10"/>
<path d="M2853.45 430.721C2770.13 434.009 2690.12 431.565 2608.34 428.246C2528.08 424.986 2449.87 427.845 2369.09 428.144C2177.41 428.859 1993.09 404.326 1799.57 413.571C1556.55 425.183 1312.8 419.251 1070.33 422.103C1029.01 422.588 987.181 422.046 947.086 428.585C910.947 434.482 879.769 444.365 852.133 455.852C798.762 478.037 758.159 505.898 695.233 523.862C607.699 548.854 489.703 542.131 393.299 540.838C271.104 539.195 149.458 535.724 26.287 539.38" stroke="#FF914D" stroke-miterlimit="10"/>
<path d="M2853.22 424.751C2770.86 427.856 2691.49 425.792 2610.51 422.792C2530.83 419.845 2453.06 422.608 2372.88 423.166C2179.94 424.511 1995.96 398.434 1801.49 405.975C1555.68 415.509 1310.35 408.59 1065.04 411.912C1024.23 412.464 981.484 411.938 941.871 418.354C905.423 424.257 874.839 434.657 848.316 446.701C796.603 470.188 759.682 499.862 696.691 518.82C611.482 544.47 489.037 537.085 394.334 535.549C271.743 533.566 149.75 529.521 26.0572 533.399" stroke="#FF914D" stroke-miterlimit="10"/>
<path d="M2852.99 418.745C2771.1 421.593 2691.9 419.786 2611.26 416.999C2531.8 414.253 2454.22 416.683 2374.19 417.707C2180.51 420.183 1996.83 393.041 1802.07 399.406C1554.97 407.488 1309.1 399.806 1062.31 404.134C976.508 405.637 907.577 409.713 846.196 439.108C795.5 463.382 761.36 494.407 697.884 513.801C614.483 539.283 487.556 531.538 394.691 529.876C271.929 527.679 149.817 523.197 25.8268 527.405" stroke="#FF914D" stroke-miterlimit="10"/>
<path d="M2852.76 412.709C2771.06 415.58 2692.21 413.778 2611.8 410.902C2532.65 408.07 2455.23 410.648 2375.52 411.421C2181.54 413.296 1995.94 387.814 1800.94 393.973C1554.68 401.754 1309.95 393.997 1063.99 398.391C977.97 399.927 909.41 404.455 847.337 433.509C796.027 457.519 760.512 488.07 697.045 507.334C612.997 532.848 487.857 525.187 394.348 523.623C271.606 521.573 149.475 517.379 25.595 521.375" stroke="#FF914D" stroke-miterlimit="10"/>
<path d="M2852.53 406.648C2771.37 409.516 2693.24 407.705 2613.44 404.702C2534.78 401.747 2457.82 404.368 2378.58 405.037C2183.3 406.693 1994.66 383.471 1798.49 389.529C1554.09 397.079 1311.5 388.982 1067.42 393.316C981.373 394.841 912.959 399.731 849.846 428.194C797.561 451.776 760.209 481.724 696.479 500.662C611.491 525.917 488.086 518.489 393.861 517.094C271.187 515.274 149.07 511.441 25.3322 515.309" stroke="#FF914D" stroke-miterlimit="10"/>
<path d="M2852.29 400.569C2771.97 403.411 2694.9 401.571 2616.01 398.417C2538.05 395.301 2461.77 397.877 2383.14 398.59C2185.61 400.382 1993.16 379.915 1794.87 385.975C1553.25 393.362 1313.67 384.685 1072.38 388.851C986.479 390.333 917.958 395.496 853.575 423.151C800 446.164 760.422 475.382 696.173 493.838C610.015 518.581 488.246 511.525 393.292 510.348C270.703 508.824 148.633 505.425 25.1137 509.235" stroke="#FF914D" stroke-miterlimit="10"/>
<path d="M2852.06 394.465C2772.83 397.271 2697.09 395.38 2619.38 392.046C2542.26 388.732 2466.87 391.195 2388.98 392.063C2188.36 394.291 1991.45 377.004 1790.23 383.164C1552.16 390.446 1316.33 380.975 1078.63 384.88C993.003 386.285 924.166 391.668 858.329 418.313C803.194 440.632 761.048 469.025 696.066 486.853C608.553 510.864 488.337 504.3 392.611 503.392C270.155 502.231 148.132 499.319 24.8643 503.138" stroke="#FF914D" stroke-miterlimit="10"/>
<path d="M2851.82 388.355C2773.91 391.105 2699.73 389.166 2623.44 385.618C2547.31 382.076 2472.96 384.376 2395.92 385.481C2191.49 388.414 1989.66 374.641 1784.81 380.971C1550.91 388.203 1319.48 377.761 1086 381.326C1000.74 382.631 931.361 388.17 863.96 413.65C807.024 435.168 762.056 462.64 696.147 479.739C607.139 502.833 488.39 496.85 391.865 496.26C269.557 495.51 147.629 493.14 24.629 497.016" stroke="#FF914D" stroke-miterlimit="10"/>
<path d="M2851.59 382.239C2775.13 384.927 2702.73 382.932 2628.03 379.145C2553.04 375.345 2479.79 377.462 2403.71 378.867C2194.88 382.722 1987.79 372.729 1778.7 379.301C1549.49 386.506 1322.94 374.958 1094.22 378.138C1009.38 379.316 939.29 384.974 870.276 409.156C811.375 429.795 763.374 456.256 696.372 472.552C605.804 494.585 488.393 489.255 391.071 489.014C268.928 488.717 147.11 486.925 24.394 490.9" stroke="#FF914D" stroke-miterlimit="10"/>
<path d="M2851.35 376.129C2776.45 378.745 2706.02 376.687 2633.03 372.644C2559.27 368.558 2487.19 370.489 2412.15 372.227C2198.47 377.181 1985.92 371.288 1772.1 378.005C1547.95 385.046 1326.7 372.455 1103.1 375.199C1018.69 376.232 947.712 381.968 877.112 404.771C816.125 424.468 764.927 449.845 696.698 465.293C604.537 486.163 488.332 481.528 390.214 481.679C268.251 481.864 146.576 480.685 24.1592 484.79" stroke="#FF914D" stroke-miterlimit="10"/>
<path d="M2851.12 370.019C2777.87 372.553 2709.46 370.447 2638.29 366.127C2565.87 361.726 2494.93 363.491 2421.02 365.578C2202.23 371.751 1984.03 369.884 1765.18 376.979C1546.36 384.072 1330.6 370.167 1112.44 372.446C1028.43 373.322 956.45 379.102 884.305 400.471C821.127 419.185 766.671 443.426 697.11 458.001C603.384 477.645 488.268 473.727 389.34 474.289C267.574 474.975 146.04 474.428 23.9243 478.68" stroke="#FF914D" stroke-miterlimit="10"/>
<path d="M2850.88 363.916C2779.3 366.373 2713 364.223 2643.69 359.604C2572.64 354.869 2502.83 356.498 2430.1 358.92C2206.05 366.38 1982.16 368.59 1758.09 376.075C1544.73 383.203 1334.58 367.975 1121.98 369.782C1038.32 370.492 965.249 376.29 891.677 396.212C826.278 413.922 768.532 436.979 697.567 450.688C602.347 469.079 488.188 465.877 388.465 466.868C266.91 468.067 145.519 468.163 23.7194 472.575" stroke="#FF914D" stroke-miterlimit="10"/>
<path d="M2850.65 357.836C2780.7 360.219 2716.54 358.036 2649.09 353.107C2579.44 348.017 2510.72 349.556 2439.18 352.293C2209.86 361.064 1980.34 367.325 1751 375.202C1543.09 382.342 1338.56 365.801 1131.51 367.144C1048.13 367.683 973.93 373.475 899.021 391.986C831.386 408.691 770.423 430.548 697.98 443.408C601.341 460.561 488.035 458.056 387.547 459.48C266.204 461.198 144.985 461.93 23.4564 466.503" stroke="#FF914D" stroke-miterlimit="10"/>
<path d="M2850.42 351.776C2782.05 354.085 2719.97 351.889 2654.36 346.638C2586.12 341.182 2518.37 342.677 2448.06 345.686C2213.57 355.727 1978.64 365.957 1744.09 374.212C1541.49 381.344 1342.47 363.537 1140.84 364.433C1057.68 364.805 982.313 370.587 906.216 387.728C836.405 403.457 772.328 424.105 698.395 436.159C600.442 452.125 487.913 450.275 386.689 452.132C265.542 454.351 144.495 455.714 23.2529 460.435" stroke="#FF914D" stroke-miterlimit="10"/>
<path d="M2850.19 345.739C2783.29 347.979 2723.22 345.792 2659.34 340.217C2592.49 334.383 2525.63 335.887 2456.49 339.126C2217.08 350.343 1977.05 364.401 1737.49 372.996C1539.91 380.081 1346.19 361.091 1149.71 361.574C1066.69 361.782 990.204 367.552 913.04 383.423C841.129 398.21 774.131 417.684 698.723 428.98C599.577 443.834 487.78 442.594 385.835 444.87C264.884 447.577 144.008 449.546 23.0059 454.393" stroke="#FF914D" stroke-miterlimit="10"/>
<path d="M2849.96 339.733C2784.4 341.922 2726.19 339.762 2663.94 333.855C2598.43 327.638 2532.29 329.206 2464.28 332.623C2220.29 344.873 1975.62 362.545 1731.42 371.423C1538.45 378.435 1349.7 358.359 1157.94 358.484C1075 358.535 997.424 364.328 919.36 379.033C845.498 392.946 775.787 411.281 698.953 421.903C598.751 435.756 487.623 435.06 385.045 437.741C264.288 440.899 143.552 443.451 22.79 448.393" stroke="#FF914D" stroke-miterlimit="10"/>
<path d="M2849.73 333.77C2785.32 335.909 2728.83 333.774 2667.99 327.574C2603.69 321.023 2538.19 322.658 2471.2 326.195C2223.12 339.276 1974.4 360.283 1725.98 369.377C1537.05 376.296 1352.88 355.254 1165.27 355.084C1082.36 355.006 1003.81 360.855 924.967 374.524C849.32 387.648 777.18 404.913 699.025 414.948C597.905 427.936 487.444 427.711 384.29 430.769C263.697 434.344 143.114 437.429 22.5461 442.43" stroke="#FF914D" stroke-miterlimit="10"/>
<path d="M2849.5 327.844C2785.96 329.955 2731.05 327.827 2671.36 321.381C2608.09 314.551 2543.19 316.255 2477.04 319.845C2225.42 333.497 1973.42 357.503 1721.4 366.73C1535.82 373.525 1355.68 351.674 1171.54 351.279C1088.61 351.103 1009.19 357.065 929.743 369.857C852.535 382.288 778.293 398.58 698.955 408.14C597.1 420.415 487.288 420.599 383.661 423.988C263.214 427.925 142.768 431.495 22.3478 436.503" stroke="#FF914D" stroke-miterlimit="10"/>
<path d="M2849.27 321.966C2786.44 324.056 2732.66 322.014 2673.93 315.298C2611.63 308.168 2546.95 310.023 2481.58 313.595C2227.12 327.503 1972.71 354.1 1717.8 363.358C1534.77 370.007 1357.98 347.524 1176.48 346.997C1093.5 346.756 1013.4 352.922 933.449 365.005C854.937 376.867 778.951 392.301 698.626 401.513C596.205 413.265 487.07 413.778 383.07 417.438C262.738 421.677 142.397 425.672 22.0924 430.626" stroke="#FF914D" stroke-miterlimit="10"/>
<path d="M2849.05 316.144C2786.65 318.236 2733.63 316.292 2675.54 309.337C2614 301.963 2549.36 303.976 2484.62 307.457C2228.12 321.235 1972.35 349.98 1715.37 359.146C1533.94 365.617 1359.7 342.711 1179.89 342.162C1096.85 341.905 1016.23 348.378 935.953 359.935C856.466 371.375 779.125 386.083 698.085 395.096C595.283 406.526 486.88 407.293 382.623 411.165C262.373 415.634 142.119 419.986 21.8689 424.81" stroke="#FF914D" stroke-miterlimit="10"/>
<path d="M2848.83 310.382C2786.53 312.495 2733.89 310.666 2676.09 303.516C2615.05 295.97 2550.27 298.147 2485.92 301.441C2228.32 314.637 1972.31 345.051 1714.27 353.957C1533.41 360.204 1360.77 337.133 1181.55 336.671C1010.87 336.23 861.238 370.83 697.241 388.893C594.259 400.232 486.659 401.17 382.274 405.182L21.6322 419.043" stroke="#FF914D" stroke-miterlimit="10"/>
<path d="M2848.61 304.676C2786.36 306.56 2732.27 304.511 2673.74 298.185C2611.61 291.472 2547.02 292.962 2481.99 296.294C2225.64 309.43 1970.95 339.713 1714.16 348.615C1533.38 354.883 1360.92 331.744 1181.78 331.291C1013.17 330.868 858.827 364.504 696.084 382.17C592.669 393.396 486.207 394.383 381.455 398.819C261.45 403.903 141.475 409.353 21.4129 413.337" stroke="#FF914D" stroke-miterlimit="10"/>
<path d="M2848.39 299.05C2785.37 300.816 2728.55 298.804 2668.4 293.46C2604.55 287.786 2539.17 288.761 2473.02 292.155C2219.61 305.141 1967.95 335.204 1714.11 344.023C1533.57 350.294 1361.47 327.073 1182.61 326.616C1015.72 326.189 856.379 357.971 694.219 374.714C590.461 385.427 484.865 386.698 379.99 391.783C260.411 397.585 140.949 404.106 21.2259 407.697" stroke="#FF914D" stroke-miterlimit="10"/>
<path d="M2848.18 293.49C2783.46 295.242 2723.13 293.464 2660.44 289.27C2594.32 284.847 2527.42 285.428 2459.63 288.903C2210.67 301.663 1963.54 331.41 1714.14 340.089C1533.98 346.358 1362.38 323.039 1183.91 322.566C1018.23 322.129 853.967 351.24 691.711 366.633C587.743 376.497 482.682 378.25 377.899 384.182C258.946 390.916 140.27 398.724 21.013 402.156" stroke="#FF914D" stroke-miterlimit="10"/>
<path d="M2847.97 288.01C2710.98 291.75 2580.1 279.373 2442.45 286.428C2199.19 298.901 1957.9 328.258 1714.2 336.731C1534.56 342.979 1363.57 319.557 1185.64 319.058C1020.5 318.594 851.696 344.345 688.637 358.011C584.522 366.741 479.795 369.125 375.287 376.081C257.159 383.947 139.513 393.216 20.7871 396.664" stroke="#FF914D" stroke-miterlimit="10"/>
<path d="M2847.76 282.616C2704.92 286.685 2565.3 277.277 2422.13 284.623C2185.66 296.75 1951.25 325.659 1714.34 333.883C1535.31 340.103 1365.07 316.566 1187.75 316.024C1104.96 315.776 1021.28 323.157 938.999 329.438C854.365 335.9 769.903 342.968 685.149 348.976C580.908 356.363 476.415 359.479 372.277 367.61C255.113 376.762 138.753 387.647 20.58 391.276" stroke="#FF914D" stroke-miterlimit="10"/>
<path d="M2847.56 277.313C2697.79 281.869 2549.15 275.687 2399.28 283.376C2170.45 295.111 1943.8 323.52 1714.51 331.463C1536.16 337.644 1366.75 313.99 1190.14 313.403C1107.07 313.129 1022.54 319.936 939.525 324.719C853.448 329.675 767.376 334.766 681.28 339.625C576.805 345.526 472.696 349.405 368.918 358.851C252.855 369.419 138.036 382.045 20.3763 385.973" stroke="#FF914D" stroke-miterlimit="10"/>
<path d="M2847.36 272.108C2689.78 277.283 2532.06 274.494 2374.54 282.575C2153.97 293.895 1935.74 321.754 1714.71 329.391C1537.09 335.532 1368.58 311.745 1192.73 311.11C1109.15 310.807 1023.88 316.896 940.085 320.104C852.442 323.454 764.785 326.456 677.152 330.069C572.278 334.387 468.846 339.024 365.3 349.913C250.446 361.996 137.363 376.442 20.1612 380.769" stroke="#FF914D" stroke-miterlimit="10"/>
<path d="M2847.16 267.002C2681.16 272.904 2514.4 273.598 2348.54 282.111C2136.66 292.986 1927.28 320.272 1714.94 327.588C1538.1 333.68 1370.53 309.765 1195.49 309.081C1111.15 308.752 1025.34 314.016 940.679 315.598C851.393 317.271 762.165 318.128 672.843 320.41C567.317 323.106 464.988 328.441 361.532 340.889C247.992 354.544 136.811 370.877 19.9801 375.668" stroke="#FF914D" stroke-miterlimit="10"/>
<path d="M2846.97 261.999C2672.18 268.692 2496.52 272.901 2321.91 281.866C2118.94 292.289 1918.63 318.994 1715.19 325.974C1539.14 332.017 1372.54 307.973 1198.32 307.227C1113.01 306.861 1026.85 311.238 941.276 311.195C850.317 311.151 759.575 309.843 668.446 310.748C562.045 311.8 461.216 317.776 357.676 331.862C245.495 347.125 136.363 365.364 19.7874 370.653" stroke="#FF914D" stroke-miterlimit="10"/>
<path d="M2846.78 257.106C2663.1 264.631 2478.79 272.303 2295.29 281.732C2101.21 291.703 1909.99 317.813 1715.44 324.469C1540.2 330.463 1374.55 306.285 1201.16 305.488C1114.7 305.087 1028.39 308.552 941.894 306.915C849.246 305.153 757.08 301.694 664.069 301.208C556.603 300.641 457.579 307.166 353.824 322.963C243.047 339.832 136.067 359.973 19.5999 365.772" stroke="#FF914D" stroke-miterlimit="10"/>
<path d="M2846.6 252.335C2654.16 260.681 2461.57 271.721 2269.28 281.605C2083.89 291.131 1901.57 316.667 1715.69 323.002C1541.22 328.948 1376.54 304.64 1203.94 303.789C1116.18 303.358 1029.92 305.933 942.5 302.739C848.195 299.295 754.68 293.738 659.772 291.874C551.17 289.739 454.037 296.731 350.069 314.263C240.708 332.7 135.909 354.711 19.4163 360.996" stroke="#FF914D" stroke-miterlimit="10"/>
<path d="M2846.42 247.681C2645.62 256.795 2445.23 271.044 2244.54 281.361C2067.4 290.466 1893.56 315.449 1715.91 321.48C1542.18 327.38 1378.39 302.952 1206.56 302.047C1117.45 301.576 1031.36 303.329 943.081 298.674C847.181 293.613 752.437 286.046 655.666 282.862C602.762 281.122 549.149 280.139 495.779 284.695C444.467 289.074 394.91 296.92 346.487 305.868C238.511 325.808 135.891 349.622 19.2521 356.341" stroke="#FF914D" stroke-miterlimit="10"/>
<path d="M2846.24 243.162C2637.69 252.947 2430.17 270.166 2221.68 280.904C2052.15 289.637 1886.16 314.092 1716.12 319.85C1543.05 325.711 1380.12 301.165 1208.98 300.215C1169.21 299.997 1129.34 301.879 1089.62 301.335C1040.38 300.661 991.777 297.985 943.637 294.733C846.248 288.161 750.385 278.701 651.811 274.288C598.75 271.912 544.896 270.404 491.126 275.289C439.957 279.932 390.893 288.328 343.127 297.888C236.489 319.228 135.968 344.75 19.0487 351.822" stroke="#FF914D" stroke-miterlimit="10"/>
<path d="M2846.07 238.77C2630.61 249.073 2416.8 269.001 2201.35 280.112C2038.57 288.506 1879.58 312.489 1716.28 318.012C1543.82 323.844 1381.64 299.183 1211.13 298.196C1171.3 297.969 1131.4 299.889 1091.65 299.101C1041.76 298.109 992.658 294.815 944.169 290.915C845.414 282.962 748.6 271.763 648.347 266.251C595.191 263.326 541.1 261.412 486.986 266.554C435.913 271.408 387.267 280.303 340.142 290.414C234.731 313.024 136.204 340.135 18.8799 347.431" stroke="#FF914D" stroke-miterlimit="10"/>
<path d="M2845.91 234.513C2624.59 245.139 2405.49 267.445 2184.16 278.873C2027.09 286.981 1874.05 310.558 1716.41 315.888C1544.45 321.701 1382.91 296.929 1212.91 295.917C1173.06 295.678 1133.13 297.666 1093.41 296.706C1042.93 295.486 993.422 291.667 944.675 287.202C844.724 278.052 747.113 265.29 645.334 258.845C592.146 255.475 537.854 253.304 483.481 258.622C432.443 263.615 384.153 272.944 337.591 283.529C233.286 307.248 136.554 335.803 18.7313 343.174" stroke="#FF914D" stroke-miterlimit="10"/>
<path d="M2845.75 230.404C2619.86 241.095 2396.66 265.402 2170.76 277.079C2018.1 284.968 1869.73 308.225 1716.49 313.41C1544.9 319.215 1383.88 294.35 1214.29 293.322C1174.45 293.083 1134.49 295.17 1094.8 294.123C1043.85 292.786 994.039 288.539 945.112 283.62C844.165 273.474 745.956 259.363 642.867 252.196C589.696 248.501 535.254 246.263 480.707 251.654C429.641 256.704 381.644 266.377 335.555 277.36C232.155 302 137.005 331.817 18.5733 339.064" stroke="#FF914D" stroke-miterlimit="10"/>
<path d="M2845.6 226.44C2616.68 236.88 2390.69 262.777 2161.76 274.62C2012.03 282.366 1866.83 305.39 1716.5 310.488C1545.14 316.303 1384.49 291.35 1215.16 290.318C1175.38 290.077 1135.4 292.305 1095.78 291.28C1044.5 289.956 994.494 285.397 945.51 280.15C843.811 269.255 745.205 254.027 641.036 246.387C587.931 242.492 533.392 240.43 478.814 245.767C427.673 250.771 379.847 260.688 334.109 271.977C231.371 297.332 137.544 328.189 18.4208 335.095" stroke="#FF914D" stroke-miterlimit="10"/>
<path d="M2845.45 222.636C2723.27 227.84 2602.11 239.155 2481.07 249.516C2373.19 258.746 2266.36 265.767 2157.82 271.39C2009.34 279.076 1865.57 301.978 1716.45 307.06C1545.19 312.901 1384.73 287.874 1215.48 286.857C1175.79 286.618 1135.83 289.036 1096.29 288.149C1044.86 286.996 994.742 282.264 945.839 276.824C843.651 265.463 744.879 249.372 639.936 241.559C529.492 233.34 433.538 242.228 333.348 267.51C230.981 293.341 138.129 324.999 18.2598 331.297" stroke="#FF914D" stroke-miterlimit="10"/>
<path d="M2845.31 218.985C2616.11 230.305 2388.84 253.771 2159.82 267.087C2011.35 275.716 1864.45 296.607 1715.42 301.397C1545.71 306.854 1382.95 284.641 1215.01 283.077C1175.27 282.706 1135.15 284.769 1095.57 283.895C1044.15 282.76 994.048 278.021 945.174 272.562C843.147 261.171 744.579 245.016 639.784 237.21C529.34 228.978 433.474 238.237 333.065 263.209C230.509 288.711 137.277 319.685 18.0005 326.456" stroke="#FF914D" stroke-miterlimit="10"/>
<path d="M2845.18 215.499C2617.84 227.666 2391.59 247.302 2164.46 261.066C2014.55 270.147 1863.11 287.562 1712.79 292.244C1544.77 297.476 1380.15 279.376 1213.52 277.99C1173.77 277.662 1133.53 279.471 1093.96 278.597C1042.6 277.46 992.59 272.712 943.79 267.238C842.041 255.811 743.795 239.589 639.235 231.762C529.056 223.514 433.139 232.988 332.518 257.423C229.735 282.389 135.996 312.452 17.4822 319.493" stroke="#FF914D" stroke-miterlimit="10"/>
<path d="M2845.05 212.184C2620.32 224.588 2396 240.217 2171.39 253.566C2094.34 258.144 2017.25 262.516 1940.16 266.899C1863.5 271.255 1785.53 277.706 1708.78 280.08C1542.4 285.225 1376.67 272.368 1211.17 271.796C1171.44 271.657 1131.13 273.322 1091.62 272.44C1040.36 271.298 990.465 266.534 941.796 261.03C840.4 249.553 742.563 233.254 638.327 225.402C528.663 217.14 432.543 226.69 331.732 250.397C228.685 274.632 134.387 303.607 16.7471 310.732" stroke="#FF914D" stroke-miterlimit="10"/>
<path d="M2844.93 209.046C2623.42 221.192 2401.8 232.595 2180.29 244.82C2100.66 249.216 2020.92 251.956 1941.19 254.806C1862.03 257.634 1782.6 262.867 1703.58 265.341C1538.57 270.507 1372.66 263.88 1208.08 264.644C1168.41 264.828 1128.05 266.428 1088.64 265.541C1037.51 264.395 987.78 259.605 939.287 254.064C838.33 242.528 740.977 226.142 637.137 218.245C528.225 209.966 431.72 219.476 330.771 242.288C227.454 265.639 132.519 293.371 15.8485 300.409" stroke="#FF914D" stroke-miterlimit="10"/>
<path d="M2844.82 206.086C2627.02 217.575 2408.73 224.513 2190.83 235.068C2108.02 239.078 2025.25 239.981 1942.52 241.133C1860.51 242.276 1779.34 245.849 1697.42 248.489C1533.45 253.774 1368.26 254.188 1204.39 256.744C1110.17 258.215 1025.93 256.859 936.357 246.508C835.899 234.903 739.088 218.424 635.718 210.478C527.719 202.176 430.708 211.564 329.675 233.333C226.082 255.652 130.461 282.027 14.829 288.841" stroke="#FF914D" stroke-miterlimit="10"/>
<path d="M2844.71 203.31C2631.02 213.832 2416.56 215.95 2202.68 224.556C2116.19 228.039 2030.04 226.897 1944.09 226.244C1859.12 225.596 1775.7 227.13 1690.46 229.996C1527.08 235.491 1363.53 243.578 1200.17 248.294C1106.09 251.01 1022.1 248.952 933.042 238.538C833.142 226.857 736.932 210.275 634.076 202.272C527.108 193.949 429.499 203.14 328.421 223.746C224.564 244.918 128.208 269.833 13.6549 276.324" stroke="#FF914D" stroke-miterlimit="10"/>
<path d="M2844.61 200.729C2734.47 205.642 2624.67 205.923 2514.81 206.581C2414.69 207.183 2315.68 210.443 2215.53 213.521C2036.58 219.026 1862.33 203.955 1682.92 210.318C1519.66 216.109 1358.6 232.313 1195.61 239.472C1101.79 243.592 1017.97 240.775 929.511 230.295C830.197 218.53 734.632 201.843 632.319 193.777C526.456 185.43 428.175 194.377 327.093 213.728C222.996 233.66 125.858 257.036 12.4109 263.136" stroke="#FF914D" stroke-miterlimit="10"/>
<path d="M2844.52 198.337C2737.31 202.544 2631.14 200.695 2524.76 199.247C2423.87 197.869 2324.84 200.481 2223.72 202.285C2037.92 205.604 1860.08 182.892 1673.3 189.979C1510.66 196.15 1353.8 220.627 1192.11 230.401C1099.48 236 1016.24 232.725 929.058 222.338C827.934 210.287 730.82 192.827 626.401 184.829C522.322 176.855 424.087 185.849 323.968 203.79C220.276 222.378 122.804 243.936 11.1076 249.558" stroke="#FF914D" stroke-miterlimit="10"/>
<path d="M2844.44 196.154C2739.38 199.659 2636.4 195.617 2532.99 192.003C2433.76 188.534 2337.29 190.123 2237.44 190.873C2043.83 192.324 1860.31 161.262 1665.13 169.296C1501.63 176.027 1348.63 208.876 1187.16 221.397C982.38 237.279 815.162 191.073 624.508 176.247C521.593 168.246 422.564 176.922 322.556 193.524C218.68 210.771 120.423 230.736 9.78631 235.907" stroke="#FF914D" stroke-miterlimit="10"/>
<path d="M2844.36 194.172C2741.23 196.991 2641.6 190.763 2541.24 184.961C2494.44 182.258 2447.46 179.763 2399.97 178.698C2350.39 177.59 2300.84 179.782 2251.16 179.664C2050.27 179.184 1860.13 139.758 1656.97 148.803C1492.17 156.142 1343.52 197.294 1182.22 212.589C980.603 231.706 809.794 182.625 622.608 167.867C407.939 150.938 219.737 213.333 8.44336 222.447" stroke="#FF914D" stroke-miterlimit="10"/>
<path d="M2844.29 192.405C2742.79 194.591 2646.58 186.216 2549.3 178.256C2504.09 174.555 2458.65 171.108 2412.39 169.339C2363.21 167.462 2313.98 169.465 2264.58 168.901C2156.66 167.665 2052.45 155.482 1949.36 145.509C1854.44 136.326 1749.86 124.157 1649 128.976C1482.49 136.938 1338.58 186.183 1177.4 204.187C979.363 226.303 804.292 174.537 620.767 159.859C409.609 142.973 216.291 201.173 7.14883 209.487" stroke="#FF914D" stroke-miterlimit="10"/>
<path d="M2844.23 190.857C2744 192.505 2651.24 182.062 2556.98 172.001C2513.34 167.345 2469.35 162.972 2424.25 160.541C2375.47 157.908 2326.55 159.769 2277.39 158.817C2165.15 156.638 2057.4 142.343 1950.99 130.667C1854.95 120.13 1744.87 104.999 1641.44 110.255C1472.93 118.82 1333.98 175.806 1172.84 196.351C978.516 221.129 798.958 166.951 619.034 152.367C411.181 135.519 213.032 189.667 5.9284 197.29" stroke="#FF914D" stroke-miterlimit="10"/>
<path d="M2844.18 189.53C2744.87 190.757 2655.45 178.378 2564.08 166.333C2521.94 160.78 2479.33 155.539 2435.25 152.499C2386.84 149.159 2338.23 150.942 2289.25 149.67C2172.98 146.648 2061.91 130.342 1952.46 117.099C1855.47 105.361 1740.29 87.4802 1634.48 93.1211C1463.74 102.231 1329.89 166.452 1168.67 189.302C977.947 216.33 794.047 160.06 617.474 145.574C412.691 128.773 210 179.083 4.8217 186.166" stroke="#FF914D" stroke-miterlimit="10"/>
<path d="M2844.14 188.429C2742.84 189.438 2655.11 174.484 2564.12 160.408C2526.12 154.531 2487.57 148.956 2447.37 145.589C2399.7 141.596 2352.16 143.111 2303.64 141.809C2180.85 138.523 2063.72 119.511 1949.14 104.547C1853.01 91.9923 1740.07 73.5543 1634.37 77.6472C1548.81 80.9664 1464.76 105.818 1394.46 125.982C1321.54 146.897 1248.98 170.057 1166.23 182.983C1075.97 197.085 987.548 189.097 902.475 177.973C808.464 165.679 718.382 148.555 621.066 140.027C417.659 122.206 208.825 169.616 3.84162 176.398" stroke="#FF914D" stroke-miterlimit="10"/>
<path d="M2844.11 187.561C2742.92 188.51 2658.23 171.908 2569.63 156.172C2532.79 149.632 2495.26 143.406 2455.74 139.62C2408.35 135.084 2361.16 136.695 2312.71 135.256C2186.73 131.517 2066.85 110.712 1950.02 94.5174C1852.87 81.0462 1737.06 60.8503 1629.23 65.0558C1542.59 68.4347 1459.08 95.2503 1390.24 116.706C1318.3 139.132 1246.72 164.209 1163.2 178.04C1073.8 192.844 984.388 184.38 900.037 173.246C806.466 160.893 716.868 143.683 619.948 135.115C419.228 117.374 206.217 161.625 3.01385 168.283" stroke="#FF914D" stroke-miterlimit="10"/>
<path d="M2844.08 186.937C2742.63 188.08 2660.56 170.085 2573.91 152.927C2538.06 145.828 2501.39 139.06 2462.34 134.962C2415.14 130.008 2368.27 131.84 2319.82 130.365C2191.27 126.448 2069.06 104.036 1950.58 86.8396C1892.41 78.3995 1833.94 70.0626 1773.87 63.7351C1727.42 58.844 1674.83 53.2703 1625.28 55.4505C1536.84 59.3455 1455.55 86.7617 1386.97 109.592C1315.93 133.245 1245.2 160.004 1160.91 174.453C1072.27 189.644 981.758 180.799 898.13 169.669C804.911 157.265 715.737 139.978 619.141 131.379C521.804 122.717 419.742 129.996 320.576 138.56C214.384 147.732 109.859 158.468 2.39285 162.102" stroke="#FF914D" stroke-miterlimit="10"/>
<path d="M2844.07 186.552C2741.98 188.166 2662.03 169.091 2576.8 150.782C2541.7 143.244 2505.68 136.053 2466.96 131.772C2419.8 126.552 2373.23 128.753 2324.73 127.352C2194.36 123.592 2070.29 99.7624 1950.85 81.8436C1891.85 72.9883 1832.52 64.2371 1771.47 57.6044C1724.72 52.529 1672.71 47.1412 1622.75 49.2694C1532.92 53.0958 1453.03 81.0949 1384.88 104.938C1314.64 129.51 1244.6 157.67 1159.53 172.387C1071.53 187.615 979.766 178.475 896.877 167.377C803.937 154.932 715.07 137.578 618.724 128.97C521.445 120.275 419.423 127.834 320.161 135.826C214.034 144.37 109.122 154.234 2.00439 158.136" stroke="#FF914D" stroke-miterlimit="10"/>
<path d="M2844.06 186.417C2741.02 188.822 2662.57 169.046 2578.04 149.883C2543.47 142.049 2507.85 134.579 2469.23 130.251C2421.94 124.951 2375.66 127.667 2327.04 126.479C2195.73 123.282 2070.26 98.2507 1950.67 79.9151C1851.14 64.6551 1733.99 42.489 1621.78 47.01C1435.78 54.502 1326.21 143.685 1159.1 172.072C1071.59 186.939 978.421 177.608 896.285 166.567C803.522 154.103 714.889 136.691 618.675 128.083C521.233 119.364 419.434 127.35 319.981 134.982C213.912 143.12 108.68 152.34 1.84594 156.697" stroke="#FF914D" stroke-miterlimit="10"/>
</g>
<defs>
<clipPath id="clip0_594_34">
<rect width="2839.04" height="598.298" fill="white" transform="matrix(-0.999262 0.0384058 0.0384058 0.999262 2836.94 0)"/>
</clipPath>
</defs>
</svg>
