<svg width="22" height="22" viewBox="0 0 22 22" fill="none" xmlns="http://www.w3.org/2000/svg">
<path d="M18.2046 3.55555C17.2364 2.58318 16.083 1.81221 14.8119 1.28761C13.5408 0.763018 12.1773 0.495296 10.801 0.500063C5.03438 0.500063 0.334493 5.17255 0.334493 10.9055C0.334493 12.743 0.820324 14.528 1.72862 16.103L0.25 21.5L5.79482 20.051C7.32624 20.8805 9.04778 21.3215 10.801 21.3215C16.5676 21.3215 21.2675 16.649 21.2675 10.916C21.2675 8.13354 20.1797 5.51905 18.2046 3.55555ZM10.801 19.5575C9.23788 19.5575 7.70646 19.1375 6.36514 18.35L6.04829 18.161L2.75309 19.022L3.6297 15.83L3.41847 15.5045C2.55004 14.1258 2.08891 12.5322 2.08771 10.9055C2.08771 6.13855 5.99549 2.25356 10.7904 2.25356C13.114 2.25356 15.3002 3.15655 16.9373 4.79455C17.7478 5.59671 18.3902 6.55084 18.8271 7.60164C19.2641 8.65244 19.4869 9.779 19.4826 10.916C19.5037 15.683 15.5959 19.5575 10.801 19.5575ZM15.5748 13.0895C15.3108 12.9635 14.0223 12.3335 13.7899 12.239C13.547 12.155 13.378 12.113 13.1985 12.365C13.0189 12.6275 12.5225 13.2155 12.3747 13.3835C12.2268 13.562 12.0684 13.583 11.8043 13.4465C11.5403 13.3205 10.6954 13.037 9.70259 12.155C8.92104 11.462 8.40352 10.6115 8.2451 10.349C8.09724 10.0865 8.22397 9.95003 8.36127 9.81353C8.47745 9.69803 8.62531 9.50904 8.75205 9.36203C8.87879 9.21504 8.9316 9.09954 9.01609 8.93154C9.10058 8.75304 9.05834 8.60604 8.99497 8.48004C8.9316 8.35404 8.40352 7.07304 8.19229 6.54804C7.98106 6.04405 7.75927 6.10705 7.60084 6.09655H7.09389C6.91434 6.09655 6.63974 6.15955 6.39683 6.42204C6.16447 6.68454 5.48853 7.31454 5.48853 8.59554C5.48853 9.87653 6.42851 11.1155 6.55525 11.2835C6.68199 11.462 8.40352 14.087 11.0228 15.2105C11.6459 15.4835 12.1318 15.641 12.512 15.7565C13.1351 15.956 13.7054 15.9245 14.1596 15.8615C14.6665 15.788 15.7121 15.2315 15.9233 14.6225C16.1451 14.0135 16.1451 13.499 16.0712 13.3835C15.9973 13.268 15.8389 13.2155 15.5748 13.0895Z" fill="#FF914D"/>
</svg>
