<svg width="82" height="83" viewBox="0 0 82 83" fill="none" xmlns="http://www.w3.org/2000/svg">
<rect y="0.5" width="82" height="82" rx="41" fill="url(#paint0_linear_212_230)"/>
<path d="M55.6324 27.3201C53.7878 25.4683 51.5909 24 49.1698 23.0008C46.7486 22.0016 44.1517 21.4915 41.5302 21.5001C30.5462 21.5001 21.594 30.4001 21.594 41.3201C21.594 44.82 22.5194 48.22 24.2495 51.22L21.4331 61.5L31.9947 58.74C34.9117 60.32 38.1908 61.16 41.5302 61.16C52.5143 61.16 61.4664 52.26 61.4664 41.3401C61.4664 36.0401 59.3944 31.0601 55.6324 27.3201ZM41.5302 57.8C38.5529 57.8 35.6359 57 33.081 55.5L32.4775 55.14L26.2009 56.78L27.8706 50.7L27.4683 50.08C25.8137 47.4542 24.9354 44.4186 24.9335 41.3201C24.9335 32.2401 32.3769 24.8401 41.5101 24.8401C45.9359 24.8401 50.1002 26.5601 53.2184 29.6801C54.7626 31.2078 55.9863 33.0252 56.8186 35.0267C57.6509 37.0283 58.0751 39.1742 58.0666 41.3401C58.1069 50.42 50.6635 57.8 41.5302 57.8ZM50.6232 45.48C50.1203 45.24 47.666 44.04 47.2234 43.8601C46.7607 43.7001 46.4389 43.6201 46.0969 44.1C45.7549 44.6 44.8094 45.72 44.5277 46.04C44.2461 46.38 43.9443 46.42 43.4414 46.16C42.9384 45.92 41.3291 45.38 39.438 43.7001C37.9494 42.3801 36.9636 40.7601 36.6619 40.2601C36.3802 39.7601 36.6216 39.5001 36.8832 39.2401C37.1044 39.0201 37.3861 38.6601 37.6275 38.3801C37.8689 38.1001 37.9695 37.8801 38.1304 37.5601C38.2914 37.2201 38.2109 36.9401 38.0902 36.7001C37.9695 36.4601 36.9636 34.0201 36.5613 33.0201C36.1589 32.0601 35.7365 32.1801 35.4347 32.1601H34.4691C34.1271 32.1601 33.604 32.2801 33.1413 32.7801C32.6988 33.2801 31.4113 34.4801 31.4113 36.9201C31.4113 39.3601 33.2017 41.7201 33.4431 42.0401C33.6845 42.3801 36.9636 47.38 41.9527 49.52C43.1396 50.04 44.065 50.34 44.7892 50.56C45.9762 50.94 47.0625 50.88 47.9275 50.76C48.8932 50.62 50.8848 49.56 51.2871 48.4C51.7096 47.24 51.7096 46.26 51.5688 46.04C51.4279 45.82 51.1262 45.72 50.6232 45.48Z" fill="white"/>
<defs>
<linearGradient id="paint0_linear_212_230" x1="41" y1="0.5" x2="41" y2="82.5" gradientUnits="userSpaceOnUse">
<stop stop-color="#4AC644"/>
<stop offset="1" stop-color="#246021"/>
</linearGradient>
</defs>
</svg>
